<svg width="45" height="11" viewBox="0 0 45 11" fill="none" xmlns="http://www.w3.org/2000/svg">
<path d="M10.7143 5.5C10.7143 8.53757 8.31581 11 5.35714 11C2.39847 11 0 8.53757 0 5.5C0 2.46243 2.39847 0 5.35714 0C8.31581 0 10.7143 2.46243 10.7143 5.5Z" fill="#CD5954"/>
<path d="M27.8571 5.5C27.8571 8.53757 25.4587 11 22.5 11C19.5413 11 17.1429 8.53757 17.1429 5.5C17.1429 2.46243 19.5413 0 22.5 0C25.4587 0 27.8571 2.46243 27.8571 5.5Z" fill="#CD5954"/>
<path d="M45 5.5C45 8.53757 42.6015 11 39.6429 11C36.6842 11 34.2857 8.53757 34.2857 5.5C34.2857 2.46243 36.6842 0 39.6429 0C42.6015 0 45 2.46243 45 5.5Z" fill="#CD5954"/>
</svg>
