<svg width="34" height="33" viewBox="0 0 34 33" fill="none" xmlns="http://www.w3.org/2000/svg">
<g clip-path="url(#clip0_248_2718)">
<path d="M21.1249 5.29183C21.1292 5.56527 21.2134 5.83148 21.3671 6.0577C21.5207 6.28392 21.7372 6.46028 21.9898 6.56508C24.2478 7.55863 26.1574 9.2044 27.4733 11.2911C28.7892 13.3778 29.4514 15.8102 29.3749 18.276C29.3217 21.558 27.9668 24.6845 25.6084 26.9676C23.25 29.2507 20.0812 30.5034 16.7992 30.4502C13.5171 30.397 10.3906 29.0421 8.10751 26.6837C5.8244 24.3253 4.57167 21.1565 4.62491 17.8745C4.62809 15.4768 5.32774 13.1316 6.63881 11.1241C7.94988 9.11665 9.8159 7.53326 12.01 6.56646C12.2627 6.46103 12.4792 6.28414 12.6328 6.05748C12.7865 5.83082 12.8706 5.56424 12.8749 5.29046C12.8753 5.06525 12.8203 4.84339 12.7148 4.6444C12.6094 4.44541 12.4566 4.27537 12.2701 4.14923C12.0835 4.02308 11.8688 3.94469 11.6448 3.92096C11.4209 3.89722 11.1945 3.92885 10.9857 4.01308C7.79468 5.39653 5.17797 7.83743 3.57629 10.9246C1.97461 14.0119 1.48583 17.5568 2.19227 20.9622C2.89872 24.3677 4.75723 27.4257 7.45476 29.621C10.1523 31.8164 13.524 33.015 17.002 33.015C20.4799 33.015 23.8517 31.8164 26.5492 29.621C29.2467 27.4257 31.1052 24.3677 31.8117 20.9622C32.5181 17.5568 32.0293 14.0119 30.4277 10.9246C28.826 7.83743 26.2093 5.39653 23.0183 4.01308C22.8091 3.92794 22.5822 3.89563 22.3575 3.91901C22.1329 3.9424 21.9175 4.02075 21.7303 4.14716C21.5432 4.27356 21.39 4.44412 21.2844 4.64376C21.1788 4.84341 21.1241 5.06599 21.1249 5.29183Z" fill="#CD5954"/>
<path d="M18.375 1.375C18.375 0.615608 17.7594 0 17 0C16.2406 0 15.625 0.615608 15.625 1.375V9.625C15.625 10.3844 16.2406 11 17 11C17.7594 11 18.375 10.3844 18.375 9.625V1.375Z" fill="#CD5954"/>
</g>
<defs>
<clipPath id="clip0_248_2718">
<rect width="33" height="33" fill="white" transform="translate(0.5)"/>
</clipPath>
</defs>
</svg>
