<svg width="24" height="24" viewBox="0 0 24 24" fill="none" xmlns="http://www.w3.org/2000/svg">
<g clip-path="url(#clip0_267_3010)">
<path d="M12.0002 2.00003C13.3267 2.00438 14.6392 2.27177 15.8617 2.78672C17.0842 3.30167 18.1924 4.05395 19.1222 5.00003H16.0002C15.735 5.00003 15.4806 5.10539 15.2931 5.29293C15.1056 5.48046 15.0002 5.73482 15.0002 6.00003C15.0002 6.26525 15.1056 6.5196 15.2931 6.70714C15.4806 6.89468 15.735 7.00003 16.0002 7.00003H20.1432C20.6356 6.99977 21.1078 6.80404 21.456 6.45584C21.8042 6.10764 21.9999 5.63546 22.0002 5.14303V1.00003C22.0002 0.734815 21.8948 0.480461 21.7073 0.292925C21.5198 0.105389 21.2654 3.18236e-05 21.0002 3.18236e-05C20.735 3.18236e-05 20.4806 0.105389 20.2931 0.292925C20.1056 0.480461 20.0002 0.734815 20.0002 1.00003V3.07803C18.3474 1.58948 16.3128 0.590442 14.1243 0.192781C11.9358 -0.20488 9.67983 0.0145438 7.60899 0.826479C5.53815 1.63842 3.73422 3.0108 2.39921 4.78996C1.06421 6.56911 0.250844 8.68478 0.0502025 10.9C0.0372859 11.0393 0.0535183 11.1797 0.0978654 11.3123C0.142213 11.445 0.213702 11.5669 0.307779 11.6704C0.401856 11.7739 0.516457 11.8567 0.644281 11.9134C0.772104 11.9702 0.910348 11.9997 1.0502 12C1.29479 12.0031 1.53174 11.9149 1.71466 11.7525C1.89759 11.5901 2.01332 11.3653 2.0392 11.122C2.26182 8.63278 3.40718 6.31673 5.25028 4.62887C7.09339 2.94101 9.50102 2.00332 12.0002 2.00003Z" fill="#CD5954"/>
<path d="M22.951 12.0003C22.7064 11.9972 22.4695 12.0855 22.2865 12.2479C22.1036 12.4103 21.9879 12.6351 21.962 12.8783C21.7967 14.7816 21.0889 16.5974 19.9227 18.1105C18.7564 19.6236 17.1806 20.7704 15.3821 21.4149C13.5837 22.0594 11.6382 22.1744 9.77635 21.7464C7.91451 21.3185 6.21449 20.3654 4.878 19.0003H8C8.26522 19.0003 8.51957 18.895 8.70711 18.7074C8.89464 18.5199 9 18.2656 9 18.0003C9 17.7351 8.89464 17.4808 8.70711 17.2932C8.51957 17.1057 8.26522 17.0003 8 17.0003H3.857C3.6131 17.0002 3.37156 17.0481 3.1462 17.1414C2.92084 17.2347 2.71607 17.3715 2.54361 17.5439C2.37115 17.7164 2.23436 17.9212 2.14109 18.1465C2.04781 18.3719 1.99987 18.6134 2 18.8573V23.0004C2 23.2656 2.10536 23.5199 2.29289 23.7075C2.48043 23.895 2.73478 24.0004 3 24.0004C3.26522 24.0004 3.51957 23.895 3.70711 23.7075C3.89464 23.5199 4 23.2656 4 23.0004V20.9223C5.65283 22.4109 7.68741 23.4099 9.8759 23.8076C12.0644 24.2053 14.3204 23.9858 16.3912 23.1739C18.4621 22.362 20.266 20.9896 21.601 19.2104C22.936 17.4313 23.7494 15.3156 23.95 13.1003C23.9629 12.9611 23.9467 12.8206 23.9023 12.688C23.858 12.5554 23.7865 12.4334 23.6924 12.3299C23.5983 12.2265 23.4837 12.1437 23.3559 12.087C23.2281 12.0302 23.0899 12.0007 22.95 12.0003H22.951Z" fill="#CD5954"/>
</g>
<defs>
<clipPath id="clip0_267_3010">
<rect width="24" height="24" fill="white"/>
</clipPath>
</defs>
</svg>
