<svg width="46" height="45" viewBox="0 0 46 45" fill="none" xmlns="http://www.w3.org/2000/svg">
<g clip-path="url(#clip0_248_2727)">
<path d="M11.2993 29.8256C13.0077 32.4673 15.5679 34.4455 18.5551 35.4321C21.5424 36.4187 24.7771 36.3543 27.7228 35.2496C30.6684 34.1449 33.1478 32.0664 34.7496 29.3588C36.3515 26.6512 36.9795 23.4773 36.5295 20.3637C36.0794 17.2501 34.5784 14.3839 32.2754 12.2407C29.9725 10.0975 27.006 8.80613 23.8681 8.58074C20.7302 8.35536 17.6096 9.20956 15.024 11.0016C12.4383 12.7937 10.5431 15.4159 9.65272 18.4332L13.441 16.4142C13.7629 16.2427 14.1396 16.2061 14.4885 16.3123C14.8373 16.4186 15.1296 16.6591 15.3012 16.981C15.4727 17.3028 15.5093 17.6795 15.403 18.0284C15.2968 18.3772 15.0563 18.6696 14.7344 18.8411L9.70721 21.5204C9.10952 21.8385 8.40998 21.9063 7.76229 21.709C7.1146 21.5117 6.57173 21.0653 6.25296 20.4679L3.57368 15.4407C3.40217 15.1189 3.36552 14.7421 3.4718 14.3933C3.57808 14.0444 3.81859 13.7521 4.14041 13.5806V13.5806C4.46223 13.4091 4.83901 13.3724 5.18785 13.4787C5.53669 13.585 5.82902 13.8255 6.00054 14.1473L7.34438 16.6688C8.62268 13.1872 11.038 10.2387 14.1998 8.29996C17.3616 6.36126 21.0849 5.54581 24.7676 5.98549C28.4503 6.42517 31.877 8.09428 34.4935 10.7228C37.11 13.3514 38.7633 16.7858 39.186 20.4704C39.6087 24.1551 38.7761 27.8746 36.8229 31.0274C34.8696 34.1803 31.91 36.582 28.4225 37.8443C24.9351 39.1065 21.1238 39.1555 17.6051 37.9832C14.0865 36.8109 11.0661 34.4859 9.03256 31.3842C8.92683 31.2236 8.85572 31.0427 8.82375 30.8531C8.79178 30.6635 8.79967 30.4693 8.8469 30.2829C8.89413 30.0964 8.97968 29.9219 9.09808 29.7704C9.21649 29.6189 9.36515 29.4937 9.53462 29.4028C9.82873 29.2414 10.1724 29.1954 10.4986 29.2735C10.8248 29.3517 11.1103 29.5485 11.2993 29.8256Z" fill="#CD5954"/>
</g>
<defs>
<clipPath id="clip0_248_2727">
<rect width="33" height="33" fill="white" transform="matrix(-0.882492 0.470327 0.470327 0.882492 29.6221 0)"/>
</clipPath>
</defs>
</svg>
