<svg width="38" height="38" viewBox="0 0 38 38" fill="none" xmlns="http://www.w3.org/2000/svg">
<g clip-path="url(#clip0_193_4141)">
<path d="M19.0003 23.7502C18.5804 23.7502 18.1777 23.5834 17.8807 23.2864C17.5838 22.9895 17.417 22.5868 17.417 22.1668V9.50017C17.417 9.08025 17.5838 8.67752 17.8807 8.38059C18.1777 8.08366 18.5804 7.91684 19.0003 7.91684C19.4203 7.91684 19.823 8.08366 20.1199 8.38059C20.4168 8.67752 20.5837 9.08025 20.5837 9.50017V22.1668C20.5837 22.5868 20.4168 22.9895 20.1199 23.2864C19.823 23.5834 19.4203 23.7502 19.0003 23.7502ZM20.2559 37.6202C23.6759 36.2458 34.8337 30.8419 34.8337 19.0683V10.8808C34.8354 9.21677 34.312 7.59459 33.338 6.24534C32.3641 4.89609 30.9892 3.88859 29.4092 3.36634L19.4991 0.0809232C19.1755 -0.0282765 18.8251 -0.0282765 18.5016 0.0809232L8.5915 3.36634C7.01151 3.88859 5.6366 4.89609 4.66262 6.24534C3.68863 7.59459 3.16524 9.21677 3.167 10.8808V19.0683C3.167 29.4581 14.2582 35.8136 17.6592 37.5141C18.0894 37.7193 18.5386 37.8821 19.0003 38.0002C19.4297 37.9124 19.85 37.7852 20.2559 37.6202ZM28.4117 6.37151C29.3593 6.68566 30.1839 7.29044 30.7683 8.09993C31.3527 8.90942 31.6671 9.88246 31.667 10.8808V19.0683C31.667 28.858 22.0292 33.494 19.0747 34.6815C16.0854 33.1868 6.33366 27.6436 6.33366 19.0683V10.8808C6.33353 9.88246 6.64799 8.90942 7.23237 8.09993C7.81674 7.29044 8.64133 6.68566 9.589 6.37151L19.0003 3.25234L28.4117 6.37151ZM19.0003 26.9168C18.6872 26.9168 18.3811 27.0097 18.1207 27.1837C17.8603 27.3577 17.6574 27.6049 17.5375 27.8943C17.4177 28.1836 17.3863 28.5019 17.4474 28.8091C17.5085 29.1162 17.6593 29.3983 17.8807 29.6198C18.1022 29.8412 18.3843 29.992 18.6914 30.0531C18.9986 30.1142 19.3169 30.0828 19.6062 29.963C19.8956 29.8431 20.1428 29.6402 20.3168 29.3798C20.4908 29.1194 20.5837 28.8133 20.5837 28.5002C20.5837 28.0802 20.4168 27.6775 20.1199 27.3806C19.823 27.0837 19.4203 26.9168 19.0003 26.9168Z" fill="#C62A2D"/>
</g>
<defs>
<clipPath id="clip0_193_4141">
<rect width="38" height="38" fill="white"/>
</clipPath>
</defs>
</svg>
