<svg width="48" height="48" viewBox="0 0 48 48" fill="none" xmlns="http://www.w3.org/2000/svg">
<g clip-path="url(#clip0_156_2308)">
<path d="M22.952 30C22.4216 30 21.9129 30.2107 21.5378 30.5858C21.1627 30.9609 20.952 31.4696 20.952 32V38C20.952 39.5913 20.3199 41.1174 19.1946 42.2426C18.0694 43.3679 16.5433 44 14.952 44H10C8.4087 44 6.88258 43.3679 5.75736 42.2426C4.63214 41.1174 4 39.5913 4 38V10C4 8.4087 4.63214 6.88258 5.75736 5.75736C6.88258 4.63214 8.4087 4 10 4H14.952C16.5433 4 18.0694 4.63214 19.1946 5.75736C20.3199 6.88258 20.952 8.4087 20.952 10V16C20.952 16.5304 21.1627 17.0391 21.5378 17.4142C21.9129 17.7893 22.4216 18 22.952 18C23.4824 18 23.9911 17.7893 24.3662 17.4142C24.7413 17.0391 24.952 16.5304 24.952 16V10C24.9488 7.34881 23.8942 4.80712 22.0196 2.93244C20.1449 1.05776 17.6032 0.00317572 14.952 0H10C7.34881 0.00317572 4.80712 1.05776 2.93244 2.93244C1.05776 4.80712 0.00317572 7.34881 0 10L0 38C0.00317572 40.6512 1.05776 43.1929 2.93244 45.0676C4.80712 46.9422 7.34881 47.9968 10 48H14.952C17.6032 47.9968 20.1449 46.9422 22.0196 45.0676C23.8942 43.1929 24.9488 40.6512 24.952 38V32C24.952 31.4696 24.7413 30.9609 24.3662 30.5858C23.9911 30.2107 23.4824 30 22.952 30Z" fill="#CD5954"/>
<path d="M45.7342 19.7587L36.5622 10.5867C36.3778 10.3956 36.1571 10.2433 35.9131 10.1384C35.669 10.0336 35.4066 9.97846 35.1411 9.97615C34.8755 9.97384 34.6121 10.0244 34.3663 10.125C34.1205 10.2256 33.8972 10.3741 33.7095 10.5619C33.5217 10.7496 33.3732 10.9729 33.2726 11.2187C33.172 11.4645 33.1214 11.7279 33.1237 11.9935C33.1261 12.259 33.1812 12.5215 33.286 12.7655C33.3909 13.0095 33.5432 13.2302 33.7342 13.4147L42.2582 21.9407L12.0002 22.0007C11.4698 22.0007 10.9611 22.2114 10.586 22.5864C10.211 22.9615 10.0002 23.4702 10.0002 24.0007C10.0002 24.5311 10.211 25.0398 10.586 25.4149C10.9611 25.7899 11.4698 26.0007 12.0002 26.0007L42.3762 25.9387L33.7302 34.5867C33.5392 34.7711 33.3869 34.9918 33.282 35.2358C33.1772 35.4799 33.1221 35.7423 33.1197 36.0079C33.1174 36.2734 33.168 36.5368 33.2686 36.7826C33.3692 37.0284 33.5177 37.2517 33.7055 37.4394C33.8932 37.6272 34.1165 37.7757 34.3623 37.8763C34.6081 37.9769 34.8715 38.0275 35.137 38.0252C35.4026 38.0228 35.665 37.9677 35.9091 37.8629C36.1531 37.758 36.3738 37.6057 36.5582 37.4147L45.7302 28.2427C46.8556 27.118 47.4882 25.5925 47.489 24.0015C47.4897 22.4105 46.8585 20.8843 45.7342 19.7587Z" fill="#CD5954"/>
</g>
<defs>
<clipPath id="clip0_156_2308">
<rect width="48" height="48" fill="white"/>
</clipPath>
</defs>
</svg>
