<svg width="34" height="33" viewBox="0 0 34 33" fill="none" xmlns="http://www.w3.org/2000/svg">
<g clip-path="url(#clip0_248_2733)">
<path d="M26.625 30.2507H7.375C5.55231 30.2485 3.80489 29.5235 2.51605 28.2347C1.22721 26.9458 0.502183 25.1984 0.5 23.3757L0.5 9.62573C0.502183 7.80304 1.22721 6.05562 2.51605 4.76678C3.80489 3.47795 5.55231 2.75292 7.375 2.75073H26.625C28.4477 2.75292 30.1951 3.47795 31.4839 4.76678C32.7728 6.05562 33.4978 7.80304 33.5 9.62573V23.3757C33.4978 25.1984 32.7728 26.9458 31.4839 28.2347C30.1951 29.5235 28.4477 30.2485 26.625 30.2507ZM7.375 5.50073C6.28098 5.50073 5.23177 5.93533 4.45818 6.70892C3.6846 7.4825 3.25 8.53171 3.25 9.62573V23.3757C3.25 24.4698 3.6846 25.519 4.45818 26.2925C5.23177 27.0661 6.28098 27.5007 7.375 27.5007H26.625C27.719 27.5007 28.7682 27.0661 29.5418 26.2925C30.3154 25.519 30.75 24.4698 30.75 23.3757V9.62573C30.75 8.53171 30.3154 7.4825 29.5418 6.70892C28.7682 5.93533 27.719 5.50073 26.625 5.50073H7.375Z" fill="#CD5954"/>
<path d="M26.625 17.876H15.625C15.2603 17.876 14.9106 17.7311 14.6527 17.4733C14.3949 17.2154 14.25 16.8657 14.25 16.501C14.25 16.1363 14.3949 15.7866 14.6527 15.5287C14.9106 15.2708 15.2603 15.126 15.625 15.126H26.625C26.9897 15.126 27.3394 15.2708 27.5973 15.5287C27.8551 15.7866 28 16.1363 28 16.501C28 16.8657 27.8551 17.2154 27.5973 17.4733C27.3394 17.7311 26.9897 17.876 26.625 17.876Z" fill="#CD5954"/>
<path d="M10.125 17.876H7.375C7.01033 17.876 6.66059 17.7311 6.40273 17.4733C6.14487 17.2154 6 16.8657 6 16.501C6 16.1363 6.14487 15.7866 6.40273 15.5287C6.66059 15.2708 7.01033 15.126 7.375 15.126H10.125C10.4897 15.126 10.8394 15.2708 11.0973 15.5287C11.3551 15.7866 11.5 16.1363 11.5 16.501C11.5 16.8657 11.3551 17.2154 11.0973 17.4733C10.8394 17.7311 10.4897 17.876 10.125 17.876Z" fill="#CD5954"/>
<path d="M18.375 24.7493H7.375C7.01033 24.7493 6.66059 24.6044 6.40273 24.3466C6.14487 24.0887 6 23.7389 6 23.3743C6 23.0096 6.14487 22.6599 6.40273 22.402C6.66059 22.1441 7.01033 21.9993 7.375 21.9993H18.375C18.7397 21.9993 19.0894 22.1441 19.3473 22.402C19.6051 22.6599 19.75 23.0096 19.75 23.3743C19.75 23.7389 19.6051 24.0887 19.3473 24.3466C19.0894 24.6044 18.7397 24.7493 18.375 24.7493Z" fill="#CD5954"/>
<path d="M26.625 24.7493H23.875C23.5103 24.7493 23.1606 24.6044 22.9027 24.3466C22.6449 24.0887 22.5 23.7389 22.5 23.3743C22.5 23.0096 22.6449 22.6599 22.9027 22.402C23.1606 22.1441 23.5103 21.9993 23.875 21.9993H26.625C26.9897 21.9993 27.3394 22.1441 27.5973 22.402C27.8551 22.6599 28 23.0096 28 23.3743C28 23.7389 27.8551 24.0887 27.5973 24.3466C27.3394 24.6044 26.9897 24.7493 26.625 24.7493Z" fill="#CD5954"/>
</g>
<defs>
<clipPath id="clip0_248_2733">
<rect width="33" height="33" fill="white" transform="translate(0.5)"/>
</clipPath>
</defs>
</svg>
