<svg width="618" height="724" viewBox="0 0 618 724" fill="none" xmlns="http://www.w3.org/2000/svg">
<path opacity="0.1" d="M240 0C165.239 0 92.1563 21.2309 29.9946 61.008C-32.1672 100.785 -80.6164 157.322 -109.226 223.469C-137.836 289.615 -145.322 362.401 -130.737 432.623C-116.151 502.844 -80.1505 567.346 -27.2862 617.973C25.578 668.599 92.9312 703.076 166.256 717.044C239.581 731.012 315.584 723.843 384.654 696.444C453.725 669.045 512.76 622.647 554.295 563.116C595.831 503.586 618 433.597 618 362C617.892 266.023 578.032 174.008 507.167 106.142C436.301 38.2763 340.219 0.103806 240 0ZM512.38 211.167H410.919C388.206 160.758 358.301 113.61 322.058 71.0726C402.272 91.9759 470.653 142.31 512.38 211.167ZM381.75 362C381.491 392.714 376.438 423.218 366.756 452.5H113.244C103.563 423.218 98.5087 392.714 98.2501 362C98.5087 331.286 103.563 300.782 113.244 271.5H366.756C376.438 300.782 381.491 331.286 381.75 362ZM138.507 512.833H341.493C314.757 563.384 280.577 609.995 240 651.238C199.408 610.007 165.227 563.394 138.507 512.833ZM138.507 211.167C165.243 160.616 199.423 114.005 240 72.762C280.592 113.993 314.773 160.606 341.493 211.167H138.507ZM158.1 71.0726C121.801 113.601 91.8425 160.749 69.0811 211.167H-32.3804C9.38405 142.279 77.8273 91.9406 158.1 71.0726ZM-60.4783 271.5H47.8501C39.684 301.037 35.4504 331.445 35.2501 362C35.4504 392.555 39.684 422.962 47.8501 452.5H-60.4783C-79.8401 393.591 -79.8401 330.409 -60.4783 271.5ZM-32.3804 512.833H69.0811C91.8425 563.251 121.801 610.399 158.1 652.927C77.8273 632.059 9.38405 581.721 -32.3804 512.833ZM322.058 652.927C358.301 610.39 388.206 563.242 410.919 512.833H512.38C470.653 581.69 402.272 632.024 322.058 652.927ZM540.479 452.5H432.15C440.316 422.962 444.55 392.555 444.75 362C444.55 331.445 440.316 301.037 432.15 271.5H540.416C559.777 330.409 559.777 393.591 540.416 452.5H540.479Z" fill="#C62A2D"/>
</svg>
