<svg width="93" height="92" viewBox="0 0 93 92" fill="none" xmlns="http://www.w3.org/2000/svg">
<path d="M35.8104 64.3346V39.6012H27.5967V64.3346H35.8113H35.8104ZM31.7053 36.2248C34.569 36.2248 36.3518 34.3256 36.3518 31.9521C36.2982 29.5245 34.569 27.6782 31.7597 27.6782C28.9486 27.6782 27.1125 29.5245 27.1125 31.9518C27.1125 34.3254 28.8947 36.2246 31.6515 36.2246H31.7046L31.7053 36.2248ZM40.3568 64.3346H48.5699V50.5238C48.5699 49.7856 48.6235 49.0454 48.8405 48.5182C49.434 47.0406 50.7854 45.5111 53.055 45.5111C56.0263 45.5111 57.2157 47.7791 57.2157 51.1043V64.3346H65.4286V50.1532C65.4286 42.5565 61.377 39.0213 55.9732 39.0213C51.5428 39.0213 49.597 41.4998 48.5159 43.1878H48.5706V39.602H40.3573C40.4645 41.9223 40.3566 64.3355 40.3566 64.3355L40.3568 64.3346Z" fill="#413D5B"/>
</svg>
