<svg width="351" height="60" viewBox="0 0 351 60" fill="none" xmlns="http://www.w3.org/2000/svg">
<g clip-path="url(#clip0_267_3958)">
<path fill-rule="evenodd" clip-rule="evenodd" d="M0.28125 10H80.2812V90H0.28125V10Z" fill="url(#paint0_linear_267_3958)"/>
<path fill-rule="evenodd" clip-rule="evenodd" d="M32.9319 18.7648V29.2798H49.7155C52.6191 29.2798 54.973 26.926 54.973 24.0223C54.973 21.1187 52.6191 18.7648 49.7155 18.7648H32.9319V18.7648ZM31.5002 29.2798C31.4045 27.2116 30.8887 25.3568 30.0189 23.7819C29.0511 22.0294 27.6452 20.6235 25.8927 19.6557C24.1402 18.6879 22.0411 18.1582 19.687 18.1582H17.4627C15.1086 18.1582 13.0095 18.6879 11.257 19.6557C9.50447 20.6235 8.09855 22.0294 7.13076 23.7819C6.16297 25.5344 5.6333 27.6335 5.6333 29.9876C5.6333 32.3417 6.16297 34.4408 7.13076 36.1933C8.09855 37.9458 9.50447 39.3517 11.257 40.3195C13.0095 41.2873 15.1086 41.817 17.4627 41.817H19.687C22.0411 41.817 24.1402 41.2873 25.8927 40.3195C27.6452 39.3517 29.0511 37.9458 30.0189 36.1933C30.8887 34.6184 31.4045 32.7636 31.5002 30.6953H18.9793V29.2798H31.5002ZM32.9319 30.6953V41.2103H49.7155C52.6191 41.2103 54.973 38.8565 54.973 35.9528C54.973 33.0492 52.6191 30.6953 49.7155 30.6953H32.9319Z" fill="white"/>
</g>
<g clip-path="url(#clip1_267_3958)">
<path d="M124.656 10.625H75.9062C73.1448 10.625 70.9062 12.8636 70.9062 15.625V44.375C70.9062 47.1364 73.1448 49.375 75.9062 49.375H124.656C127.418 49.375 129.656 47.1364 129.656 44.375V15.625C129.656 12.8636 127.418 10.625 124.656 10.625Z" fill="white" stroke="black" stroke-opacity="0.2" stroke-width="0.5"/>
<path d="M77.2506 24.7861C75.9427 24.0688 74.4501 23.4918 72.7812 23.0915L72.8513 22.7797H79.6937C80.6212 22.8122 81.3737 23.0913 81.6186 24.0768L83.1057 31.1665L83.5612 33.3018L87.7262 22.7797H92.2232L85.5385 38.1938H81.0412L77.2506 24.7861ZM95.5312 38.2102H91.2783L93.9384 22.7797H98.191L95.5312 38.2102ZM110.948 23.1569L110.37 26.489L109.985 26.3251C109.216 26.0131 108.2 25.7013 106.817 25.7343C105.138 25.7343 104.385 26.4069 104.368 27.0636C104.368 27.786 105.279 28.2621 106.766 28.9681C109.216 30.068 110.353 31.4139 110.336 33.1705C110.301 36.3716 107.396 38.4401 102.934 38.4401C101.026 38.4236 99.1882 38.0452 98.1908 37.6189L98.7859 34.1551L99.3459 34.4017C100.728 34.9768 101.638 35.2224 103.336 35.2224C104.561 35.2224 105.873 34.7459 105.89 33.7122C105.89 33.0391 105.331 32.5463 103.686 31.7911C102.076 31.0522 99.9234 29.8212 99.9582 27.6049C99.9764 24.6011 102.934 22.5 107.134 22.5C108.779 22.5 110.109 22.8447 110.948 23.1569ZM116.601 32.7437H120.136C119.961 31.9722 119.155 28.2787 119.155 28.2787L118.858 26.9491C118.648 27.5236 118.281 28.4593 118.299 28.4264C118.299 28.4264 116.951 31.8573 116.601 32.7437ZM121.85 22.7797L125.281 38.21H121.344C121.344 38.21 120.958 36.437 120.836 35.8953H115.376C115.218 36.3055 114.483 38.21 114.483 38.21H110.021L116.338 24.06C116.776 23.0585 117.546 22.7797 118.561 22.7797H121.85Z" fill="#1434CB"/>
</g>
<g clip-path="url(#clip2_267_3958)">
<path d="M195.281 10H145.281C142.52 10 140.281 12.2386 140.281 15V45C140.281 47.7614 142.52 50 145.281 50H195.281C198.043 50 200.281 47.7614 200.281 45V15C200.281 12.2386 198.043 10 195.281 10Z" fill="#252525"/>
<path d="M162.781 42.5C169.685 42.5 175.281 36.9036 175.281 30C175.281 23.0964 169.685 17.5 162.781 17.5C155.878 17.5 150.281 23.0964 150.281 30C150.281 36.9036 155.878 42.5 162.781 42.5Z" fill="#EB001B"/>
<path d="M177.781 42.5C184.685 42.5 190.281 36.9036 190.281 30C190.281 23.0964 184.685 17.5 177.781 17.5C170.878 17.5 165.281 23.0964 165.281 30C165.281 36.9036 170.878 42.5 177.781 42.5Z" fill="#F79E1B"/>
<path fill-rule="evenodd" clip-rule="evenodd" d="M170.281 19.999C173.317 22.2795 175.281 25.9104 175.281 29.9999C175.281 34.0895 173.317 37.7203 170.281 40.0009C167.245 37.7203 165.281 34.0895 165.281 29.9999C165.281 25.9104 167.245 22.2795 170.281 19.999V19.999Z" fill="#FF5F00"/>
</g>
<g clip-path="url(#clip3_267_3958)">
<path d="M267.281 10.5H213.281C211.901 10.5 210.781 11.6193 210.781 13V47C210.781 48.3807 211.901 49.5 213.281 49.5H267.281C268.662 49.5 269.781 48.3807 269.781 47V13C269.781 11.6193 268.662 10.5 267.281 10.5Z" fill="#1F72CD" stroke="#D5DFFF"/>
<path fill-rule="evenodd" clip-rule="evenodd" d="M220.895 24L215.281 36.423H222.002L222.835 34.4422H224.739L225.572 36.423H232.97V34.9112L233.629 36.423H237.455L238.114 34.8793V36.423H253.499L255.369 34.4937L257.121 36.423L265.023 36.439L259.391 30.2462L265.023 24H257.244L255.423 25.8936L253.726 24H236.99L235.553 27.2065L234.082 24H227.376V25.4603L226.63 24H220.895ZM243.868 25.7641H252.703L255.405 28.6828L258.194 25.7641H260.896L256.791 30.2444L260.896 34.6731H258.071L255.369 31.7205L252.566 34.6731H243.868V25.7641ZM246.05 29.2371V27.6098V27.6082H251.562L253.968 30.2107L251.456 32.8274H246.05V31.0509H250.87V29.2371H246.05ZM222.195 25.7641H225.471L229.195 34.1882V25.7641H232.783L235.659 31.8041L238.31 25.7641H241.881V34.6784H239.708L239.69 27.6932L236.523 34.6784H234.579L231.394 27.6932V34.6784H226.924L226.077 32.6799H221.499L220.653 34.6766H218.259L222.195 25.7641ZM222.281 30.8325L223.789 27.2723L225.295 30.8325H222.281Z" fill="white"/>
</g>
<g clip-path="url(#clip4_267_3958)">
<path d="M337.281 10.5H283.281C281.901 10.5 280.781 11.6193 280.781 13V47C280.781 48.3807 281.901 49.5 283.281 49.5H337.281C338.662 49.5 339.781 48.3807 339.781 47V13C339.781 11.6193 338.662 10.5 337.281 10.5Z" fill="white" stroke="#D5DFFF"/>
<path d="M329.281 38.8714C329.279 40.403 328.673 41.8713 327.595 42.954C326.518 44.0367 325.057 44.6455 323.533 44.6466H292.281V21.7752C292.284 20.2443 292.89 18.7766 293.966 17.6941C295.043 16.6115 296.503 16.0023 298.026 16H329.281V38.8714Z" fill="white"/>
<path d="M319.105 33.012H321.48C321.548 33.012 321.705 32.9887 321.769 32.9887C322.01 32.9369 322.226 32.8018 322.379 32.6067C322.532 32.4117 322.612 32.169 322.606 31.9208C322.605 31.6743 322.522 31.435 322.37 31.2412C322.219 31.0474 322.007 30.9102 321.769 30.8515C321.673 30.8329 321.576 30.8256 321.48 30.8297H319.105V33.012Z" fill="url(#paint1_linear_267_3958)"/>
<path d="M321.208 17.9321C320.116 17.9325 319.069 18.3686 318.298 19.1445C317.526 19.9204 317.092 20.9727 317.091 22.07V26.3676H322.905C323.04 26.3634 323.176 26.3707 323.311 26.3894C324.623 26.4577 325.596 27.1406 325.596 28.3218C325.596 29.2545 324.94 30.0507 323.717 30.2105V30.2556C325.051 30.3471 326.068 31.0968 326.068 32.2562C326.068 33.5071 324.938 34.3251 323.445 34.3251H317.068V42.7373H323.107C324.199 42.7373 325.246 42.3014 326.018 41.5254C326.789 40.7494 327.223 39.6969 327.223 38.5995V17.9321H321.208Z" fill="url(#paint2_linear_267_3958)"/>
<path d="M322.316 28.5952C322.321 28.3573 322.238 28.1261 322.084 27.9457C321.929 27.7654 321.714 27.6485 321.48 27.6175C321.433 27.6175 321.321 27.5957 321.253 27.5957H319.105V29.5963H321.253C321.329 29.6026 321.406 29.5948 321.48 29.573C321.714 29.542 321.929 29.4251 322.084 29.2448C322.238 29.0644 322.321 28.8331 322.316 28.5952Z" fill="url(#paint3_linear_267_3958)"/>
<path d="M298.456 17.9321C297.364 17.9321 296.317 18.368 295.545 19.144C294.772 19.9199 294.338 20.9724 294.338 22.07V32.2853C295.494 32.8533 296.691 33.218 297.889 33.218C299.314 33.218 300.083 32.3463 300.083 31.1709V26.3517H303.613V31.1462C303.613 33.0103 302.456 34.5329 298.547 34.5329C297.121 34.5338 295.701 34.3582 294.318 34.0098V42.7185H300.356C300.897 42.7183 301.433 42.611 301.932 42.4027C302.432 42.1944 302.885 41.8891 303.268 41.5045C303.65 41.1198 303.953 40.6632 304.159 40.1608C304.366 39.6583 304.472 39.1199 304.471 38.5763V17.9321H298.456Z" fill="url(#paint4_linear_267_3958)"/>
<path d="M309.832 17.9321C308.74 17.9325 307.693 18.3686 306.921 19.1445C306.15 19.9204 305.716 20.9727 305.715 22.07V27.4806C306.756 26.5943 308.566 26.0277 311.482 26.1628C312.573 26.2324 313.655 26.3996 314.717 26.6626V28.4061C313.751 27.8872 312.688 27.5774 311.596 27.4965C309.379 27.3382 308.045 28.4293 308.045 30.3384C308.045 32.2707 309.379 33.3619 311.596 33.1802C312.685 33.0935 313.746 32.7893 314.717 32.2853V34.0287C313.656 34.2941 312.573 34.4614 311.482 34.5285C308.566 34.6651 306.756 34.0927 305.715 33.2108V42.7591H311.754C312.295 42.7593 312.83 42.6525 313.33 42.4446C313.829 42.2368 314.283 41.932 314.666 41.5478C315.048 41.1636 315.352 40.7074 315.559 40.2052C315.766 39.7031 315.873 39.1649 315.873 38.6213V17.9321H309.832Z" fill="url(#paint5_linear_267_3958)"/>
</g>
<defs>
<linearGradient id="paint0_linear_267_3958" x1="67.9377" y1="8.26938" x2="16.6695" y2="90" gradientUnits="userSpaceOnUse">
<stop stop-color="#002253"/>
<stop offset="0.242548" stop-color="#0082B1"/>
<stop offset="1" stop-color="#0E9641"/>
</linearGradient>
<linearGradient id="paint1_linear_267_3958" x1="317.204" y1="32.0485" x2="327.368" y2="32.0485" gradientUnits="userSpaceOnUse">
<stop stop-color="#007940"/>
<stop offset="0.23" stop-color="#00873F"/>
<stop offset="0.74" stop-color="#40A737"/>
<stop offset="1" stop-color="#5CB531"/>
</linearGradient>
<linearGradient id="paint2_linear_267_3958" x1="-120759" y1="-2.079e+06" x2="-120046" y2="-2.079e+06" gradientUnits="userSpaceOnUse">
<stop stop-color="#007940"/>
<stop offset="0.23" stop-color="#00873F"/>
<stop offset="0.74" stop-color="#40A737"/>
<stop offset="1" stop-color="#5CB531"/>
</linearGradient>
<linearGradient id="paint3_linear_267_3958" x1="-10682.6" y1="-12222" x2="-10456.4" y2="-12222" gradientUnits="userSpaceOnUse">
<stop stop-color="#007940"/>
<stop offset="0.23" stop-color="#00873F"/>
<stop offset="0.74" stop-color="#40A737"/>
<stop offset="1" stop-color="#5CB531"/>
</linearGradient>
<linearGradient id="paint4_linear_267_3958" x1="294.349" y1="30.4355" x2="304.606" y2="30.4355" gradientUnits="userSpaceOnUse">
<stop stop-color="#1F286F"/>
<stop offset="0.48" stop-color="#004E94"/>
<stop offset="0.83" stop-color="#0066B1"/>
<stop offset="1" stop-color="#006FBC"/>
</linearGradient>
<linearGradient id="paint5_linear_267_3958" x1="305.645" y1="29.9684" x2="315.698" y2="29.9684" gradientUnits="userSpaceOnUse">
<stop stop-color="#6C2C2F"/>
<stop offset="0.17" stop-color="#882730"/>
<stop offset="0.57" stop-color="#BE1833"/>
<stop offset="0.86" stop-color="#DC0436"/>
<stop offset="1" stop-color="#E60039"/>
</linearGradient>
<clipPath id="clip0_267_3958">
<rect x="0.28125" y="10" width="60" height="40" rx="5" fill="white"/>
</clipPath>
<clipPath id="clip1_267_3958">
<rect width="60" height="40" fill="white" transform="translate(70.2812 10)"/>
</clipPath>
<clipPath id="clip2_267_3958">
<rect width="60" height="40" fill="white" transform="translate(140.281 10)"/>
</clipPath>
<clipPath id="clip3_267_3958">
<rect width="60" height="40" fill="white" transform="translate(210.281 10)"/>
</clipPath>
<clipPath id="clip4_267_3958">
<rect width="60" height="40" fill="white" transform="translate(280.281 10)"/>
</clipPath>
</defs>
</svg>
