<svg width="92" height="92" viewBox="0 0 92 92" fill="none" xmlns="http://www.w3.org/2000/svg">
<path d="M38.2848 45.8981C38.2848 41.6805 41.702 38.2606 45.9183 38.2606C50.1347 38.2606 53.5537 41.6805 53.5537 45.8981C53.5537 50.1157 50.1347 53.5356 45.9183 53.5356C41.702 53.5356 38.2848 50.1157 38.2848 45.8981ZM34.1573 45.8981C34.1573 52.3956 39.4227 57.6625 45.9183 57.6625C52.414 57.6625 57.6794 52.3956 57.6794 45.8981C57.6794 39.4006 52.414 34.1337 45.9183 34.1337C39.4227 34.1337 34.1573 39.4006 34.1573 45.8981ZM55.3965 33.6672C55.3962 34.211 55.5572 34.7426 55.8591 35.1948C56.1609 35.6471 56.59 35.9996 57.0921 36.2079C57.5943 36.4162 58.1469 36.4709 58.6801 36.365C59.2133 36.2591 59.7031 35.9975 60.0877 35.6131C60.4722 35.2288 60.7342 34.739 60.8404 34.2058C60.9467 33.6725 60.8925 33.1197 60.6847 32.6172C60.4768 32.1148 60.1247 31.6853 59.6729 31.383C59.221 31.0807 58.6897 30.9192 58.1461 30.919H58.145C57.4163 30.9194 56.7176 31.209 56.2022 31.7243C55.6869 32.2395 55.3971 32.9384 55.3965 33.6672V33.6672ZM36.6651 64.5469C34.432 64.4452 33.2182 64.0731 32.4117 63.7588C31.3423 63.3424 30.5793 62.8464 29.7771 62.0451C28.9749 61.2438 28.4784 60.4813 28.0639 59.4116C27.7495 58.6052 27.3775 57.3907 27.276 55.157C27.1649 52.742 27.1428 52.0166 27.1428 45.8983C27.1428 39.78 27.1668 39.0566 27.276 36.6396C27.3777 34.4059 27.7524 33.1938 28.0639 32.3849C28.4802 31.3153 28.976 30.5521 29.7771 29.7497C30.5782 28.9472 31.3405 28.4505 32.4117 28.0359C33.2179 27.7214 34.432 27.3493 36.6651 27.2478C39.0793 27.1367 39.8046 27.1145 45.9183 27.1145C52.0321 27.1145 52.7581 27.1386 55.1744 27.2478C57.4075 27.3495 58.6192 27.7243 59.4278 28.0359C60.4971 28.4505 61.2601 28.9483 62.0623 29.7497C62.8645 30.551 63.3592 31.3153 63.7756 32.3849C64.09 33.1914 64.4619 34.4059 64.5635 36.6396C64.6745 39.0566 64.6967 39.78 64.6967 45.8983C64.6967 52.0166 64.6745 52.74 64.5635 55.157C64.4618 57.3907 64.088 58.6048 63.7756 59.4116C63.3592 60.4813 62.8634 61.2445 62.0623 62.0451C61.2612 62.8457 60.4971 63.3424 59.4278 63.7588C58.6216 64.0733 57.4075 64.4454 55.1744 64.5469C52.7601 64.658 52.0349 64.6802 45.9183 64.6802C39.8018 64.6802 39.0786 64.658 36.6651 64.5469V64.5469ZM36.4754 23.1261C34.0371 23.2371 32.371 23.6239 30.9159 24.1902C29.409 24.7751 28.1333 25.5597 26.8586 26.8328C25.5838 28.1059 24.8014 29.384 24.2167 30.8913C23.6505 32.3477 23.2639 34.0134 23.1529 36.4524C23.04 38.8953 23.0142 39.6763 23.0142 45.8981C23.0142 52.1199 23.04 52.9009 23.1529 55.3438C23.2639 57.7829 23.6505 59.4485 24.2167 60.9049C24.8014 62.4113 25.584 63.6908 26.8586 64.9634C28.1332 66.2359 29.409 67.0195 30.9159 67.606C32.3737 68.1724 34.0371 68.5591 36.4754 68.6702C38.9188 68.7812 39.6983 68.8089 45.9183 68.8089C52.1384 68.8089 52.9191 68.7831 55.3613 68.6702C57.7998 68.5591 59.4648 68.1724 60.9208 67.606C62.4268 67.0195 63.7034 66.2365 64.9781 64.9634C66.2529 63.6903 67.0336 62.4113 67.62 60.9049C68.1862 59.4485 68.5746 57.7828 68.6838 55.3438C68.7949 52.8991 68.8207 52.1199 68.8207 45.8981C68.8207 39.6763 68.7949 38.8953 68.6838 36.4524C68.5728 34.0133 68.1862 32.3468 67.62 30.8913C67.0336 29.3849 66.2508 28.108 64.9781 26.8328C63.7054 25.5577 62.4268 24.7751 60.9226 24.1902C59.4648 23.6239 57.7996 23.2353 55.3631 23.1261C52.921 23.015 52.1402 22.9873 45.9202 22.9873C39.7001 22.9873 38.9188 23.0131 36.4754 23.1261Z" fill="#413D5B"/>
<path d="M38.2848 45.8981C38.2848 41.6805 41.702 38.2606 45.9183 38.2606C50.1347 38.2606 53.5537 41.6805 53.5537 45.8981C53.5537 50.1157 50.1347 53.5356 45.9183 53.5356C41.702 53.5356 38.2848 50.1157 38.2848 45.8981ZM34.1573 45.8981C34.1573 52.3956 39.4227 57.6625 45.9183 57.6625C52.414 57.6625 57.6794 52.3956 57.6794 45.8981C57.6794 39.4006 52.414 34.1337 45.9183 34.1337C39.4227 34.1337 34.1573 39.4006 34.1573 45.8981ZM55.3965 33.6672C55.3962 34.211 55.5572 34.7426 55.8591 35.1948C56.1609 35.6471 56.59 35.9996 57.0921 36.2079C57.5943 36.4162 58.1469 36.4709 58.6801 36.365C59.2133 36.2591 59.7031 35.9975 60.0877 35.6131C60.4722 35.2288 60.7342 34.739 60.8404 34.2058C60.9467 33.6725 60.8925 33.1197 60.6847 32.6172C60.4768 32.1148 60.1247 31.6853 59.6729 31.383C59.221 31.0807 58.6897 30.9192 58.1461 30.919H58.145C57.4163 30.9194 56.7176 31.209 56.2022 31.7243C55.6869 32.2395 55.3971 32.9384 55.3965 33.6672V33.6672ZM36.6651 64.5469C34.432 64.4452 33.2182 64.0731 32.4117 63.7588C31.3423 63.3424 30.5793 62.8464 29.7771 62.0451C28.9749 61.2438 28.4784 60.4813 28.0639 59.4116C27.7495 58.6052 27.3775 57.3907 27.276 55.157C27.1649 52.742 27.1428 52.0166 27.1428 45.8983C27.1428 39.78 27.1668 39.0566 27.276 36.6396C27.3777 34.4059 27.7524 33.1938 28.0639 32.3849C28.4802 31.3153 28.976 30.5521 29.7771 29.7497C30.5782 28.9472 31.3405 28.4505 32.4117 28.0359C33.2179 27.7214 34.432 27.3493 36.6651 27.2478C39.0793 27.1367 39.8046 27.1145 45.9183 27.1145C52.0321 27.1145 52.7581 27.1386 55.1744 27.2478C57.4075 27.3495 58.6192 27.7243 59.4278 28.0359C60.4971 28.4505 61.2601 28.9483 62.0623 29.7497C62.8645 30.551 63.3592 31.3153 63.7756 32.3849C64.09 33.1914 64.4619 34.4059 64.5635 36.6396C64.6745 39.0566 64.6967 39.78 64.6967 45.8983C64.6967 52.0166 64.6745 52.74 64.5635 55.157C64.4618 57.3907 64.088 58.6048 63.7756 59.4116C63.3592 60.4813 62.8634 61.2445 62.0623 62.0451C61.2612 62.8457 60.4971 63.3424 59.4278 63.7588C58.6216 64.0733 57.4075 64.4454 55.1744 64.5469C52.7601 64.658 52.0349 64.6802 45.9183 64.6802C39.8018 64.6802 39.0786 64.658 36.6651 64.5469V64.5469ZM36.4754 23.1261C34.0371 23.2371 32.371 23.6239 30.9159 24.1902C29.409 24.7751 28.1333 25.5597 26.8586 26.8328C25.5838 28.1059 24.8014 29.384 24.2167 30.8913C23.6505 32.3477 23.2639 34.0134 23.1529 36.4524C23.04 38.8953 23.0142 39.6763 23.0142 45.8981C23.0142 52.1199 23.04 52.9009 23.1529 55.3438C23.2639 57.7829 23.6505 59.4485 24.2167 60.9049C24.8014 62.4113 25.584 63.6908 26.8586 64.9634C28.1332 66.2359 29.409 67.0195 30.9159 67.606C32.3737 68.1724 34.0371 68.5591 36.4754 68.6702C38.9188 68.7812 39.6983 68.8089 45.9183 68.8089C52.1384 68.8089 52.9191 68.7831 55.3613 68.6702C57.7998 68.5591 59.4648 68.1724 60.9208 67.606C62.4268 67.0195 63.7034 66.2365 64.9781 64.9634C66.2529 63.6903 67.0336 62.4113 67.62 60.9049C68.1862 59.4485 68.5746 57.7828 68.6838 55.3438C68.7949 52.8991 68.8207 52.1199 68.8207 45.8981C68.8207 39.6763 68.7949 38.8953 68.6838 36.4524C68.5728 34.0133 68.1862 32.3468 67.62 30.8913C67.0336 29.3849 66.2508 28.108 64.9781 26.8328C63.7054 25.5577 62.4268 24.7751 60.9226 24.1902C59.4648 23.6239 57.7996 23.2353 55.3631 23.1261C52.921 23.015 52.1402 22.9873 45.9202 22.9873C39.7001 22.9873 38.9188 23.0131 36.4754 23.1261Z" fill="#413D5B"/>
</svg>
