<svg width="93" height="92" viewBox="0 0 93 92" fill="none" xmlns="http://www.w3.org/2000/svg">
<path d="M69.191 31.285C67.6792 31.9362 66.0898 32.3897 64.4622 32.6342C65.2231 32.5037 66.3428 31.1327 66.7886 30.5778C67.4657 29.7408 67.9817 28.7852 68.3105 27.7597C68.3105 27.6836 68.3866 27.5747 68.3105 27.5203C68.2721 27.4994 68.2292 27.4884 68.1855 27.4884C68.1418 27.4884 68.0988 27.4994 68.0605 27.5203C66.2931 28.4783 64.412 29.2094 62.4619 29.6965C62.394 29.7172 62.3216 29.7191 62.2527 29.7019C62.1837 29.6846 62.1208 29.6489 62.0706 29.5985C61.9188 29.4176 61.7554 29.2468 61.5814 29.0872C60.786 28.3739 59.8836 27.7901 58.9071 27.3571C57.5891 26.8159 56.1654 26.5815 54.7436 26.6717C53.3639 26.7589 52.017 27.1292 50.7865 27.7597C49.5748 28.4244 48.5099 29.3275 47.6557 30.4146C46.7572 31.5335 46.1085 32.832 45.7533 34.2228C45.4604 35.5457 45.4271 36.913 45.6554 38.2486C45.6554 38.4771 45.6554 38.5098 45.4598 38.4771C37.7088 37.3347 31.3493 34.5819 26.153 28.6737C25.9247 28.4126 25.8051 28.4126 25.6203 28.6737C23.3591 32.112 24.4571 37.5523 27.2835 40.2398C27.664 40.5988 28.0554 40.947 28.4685 41.2734C27.1726 41.1814 25.9083 40.8299 24.7506 40.2398C24.5332 40.0983 24.4136 40.1745 24.4027 40.4356C24.3719 40.7977 24.3719 41.1617 24.4027 41.5237C24.6296 43.2587 25.3127 44.9023 26.3823 46.2864C27.452 47.6705 28.8697 48.7454 30.4905 49.4013C30.8856 49.5706 31.2973 49.6983 31.7189 49.7821C30.5192 50.0185 29.2888 50.0552 28.0771 49.8909C27.8162 49.8365 27.7184 49.9779 27.8162 50.2282C29.4142 54.5804 32.8821 55.9079 35.4259 56.6477C35.7737 56.7021 36.1216 56.7021 36.513 56.7892C36.513 56.7892 36.513 56.7892 36.4477 56.8545C35.6976 58.2254 32.6647 59.1503 31.2732 59.629C28.7334 60.5421 26.0255 60.8911 23.3374 60.6518C22.9134 60.5865 22.8156 60.5974 22.7069 60.6518C22.5982 60.7062 22.7069 60.8259 22.8264 60.9347C23.37 61.2938 23.9135 61.6093 24.4788 61.914C26.1617 62.8327 27.9408 63.5625 29.7839 64.0901C39.3285 66.7232 50.069 64.7864 57.233 57.6596C62.8641 52.067 64.8427 44.3526 64.8427 36.6274C64.8427 36.3336 65.2014 36.1595 65.4079 36.0072C66.8326 34.8962 68.0886 33.5841 69.1367 32.112C69.3182 31.8925 69.4112 31.6131 69.3976 31.3286V31.3286C69.3976 31.1653 69.3976 31.198 69.191 31.285Z" fill="#413D5B"/>
</svg>
