<svg width="92" height="92" viewBox="0 0 92 92" fill="none" xmlns="http://www.w3.org/2000/svg">
<path d="M71.4944 33.1872C70.8966 30.9398 69.1282 29.1668 66.8782 28.5592C62.8099 27.4688 46.487 27.4688 46.487 27.4688C46.487 27.4688 30.1723 27.4688 26.0957 28.5592C23.854 29.1585 22.0856 30.9315 21.4795 33.1872C20.3918 37.2659 20.3918 45.7811 20.3918 45.7811C20.3918 45.7811 20.3918 54.2964 21.4795 58.375C22.0773 60.6224 23.8457 62.3954 26.0957 63.0031C30.1723 64.0935 46.487 64.0935 46.487 64.0935C46.487 64.0935 62.8099 64.0935 66.8782 63.0031C69.1199 62.4037 70.8883 60.6308 71.4944 58.375C72.5821 54.2964 72.5821 45.7811 72.5821 45.7811C72.5821 45.7811 72.5821 37.2659 71.4944 33.1872Z" fill="#413D5B"/>
<path d="M41.2729 53.6305L54.8311 45.7811L41.2729 37.9318V53.6305Z" fill="white"/>
</svg>
