<svg width="410" height="373" viewBox="0 0 410 373" fill="none" xmlns="http://www.w3.org/2000/svg">
<path d="M202.257 9.21973H37.6621V189.775H202.257V9.21973Z" fill="#E0E0E0"/>
<path d="M197.286 14.3865H43.6836V184.617H197.286V14.3865Z" fill="#FAFAFA"/>
<path d="M43.6836 139.696H74.5831L78.5562 155.574H91.9679L103.393 110.429H141.621V79.6426H169.433V131.078H197.286V184.626H43.6836V139.696Z" fill="#F5F5F5"/>
<path d="M122.929 14.3865H117.968V183.215H122.929V14.3865Z" fill="#E0E0E0"/>
<path d="M197.286 96.8604H43.6836V101.299H197.286V96.8604Z" fill="#E0E0E0"/>
<path d="M358.586 57.3574L368.467 79.4181L362.322 79.4001L357.402 65.8402L358.586 57.3574Z" fill="#E0E0E0"/>
<path d="M324.857 36.9685L321.46 79.2476L356.518 79.8857L360.46 36.9685H324.857Z" fill="#EBEBEB"/>
<path d="M328.356 40.3739L325.536 75.5631L351.597 76.6324L355.241 40.1672L328.356 40.3739Z" fill="#FAFAFA"/>
<path d="M334.079 45.3525L331.958 70.082H346.338L348.88 45.3525H334.079Z" fill="#E0E0E0"/>
<path d="M272.784 79.5798V44.813H301.944V79.5529L272.784 79.5798Z" fill="#EBEBEB"/>
<path d="M289.366 44.8133C289.366 44.8133 296.396 -0.0628359 294.43 6.60647e-05C292.464 0.0629681 287.513 40.9133 287.513 40.9133C287.513 40.9133 287.307 7.08103 285.454 7.26075C283.602 7.44047 285.454 43.079 285.454 43.079C285.454 43.079 282.284 14.153 280.576 14.8449C278.867 15.5369 281.306 44.8133 281.306 44.8133H289.376" fill="#E0E0E0"/>
<path d="M284.065 44.8133C284.065 44.8133 286.505 22.4472 287.308 23.9748C288.111 25.5024 287.308 37.2921 287.308 37.2921C287.308 37.2921 294.111 8.40206 295.83 9.36357C297.549 10.3251 288.965 40.7517 288.965 40.7517C288.965 40.7517 295.552 23.3997 297.004 25.2329C298.455 27.066 291.538 43.3396 291.538 43.3396C291.538 43.3396 298.609 31.8286 299.093 33.3742C299.577 34.9198 295.717 44.8223 295.717 44.8223L284.065 44.8133Z" fill="#EBEBEB"/>
<path d="M279.907 44.9478C279.907 44.9478 264.323 18.2324 266.248 19.0591C268.173 19.8858 278.147 37.1569 278.147 37.1569C278.147 37.1569 271.549 20.4968 273 19.9846C274.452 19.4724 281.677 38.7025 281.677 38.7025L283.304 44.9927L279.907 44.9478Z" fill="#EBEBEB"/>
<path d="M286.289 44.8761L287.019 79.634H273.155L272.887 44.7593L286.289 44.8761Z" fill="#E0E0E0"/>
<path d="M272.815 47.8863L286.247 48.084L301.944 47.8863L302.438 44.5615H272.434L272.815 47.8863Z" fill="#F5F5F5"/>
<path d="M393.51 79.0139H247.7V84.6032H393.51V79.0139Z" fill="#E0E0E0"/>
<path d="M275.028 280.426C273.793 279.231 276.706 272.249 290.53 271.755C304.353 271.26 309.891 275.655 309.911 280.426C309.921 282.538 275.028 280.426 275.028 280.426Z" fill="#455A64"/>
<path d="M268.204 97.759L252.847 180.673H393.099L410 96.8694L268.204 97.759Z" fill="#F5F5F5"/>
<path d="M266.804 105.298C266.866 105.011 408.394 104.831 408.394 104.831L410 96.8694L268.204 97.768L266.804 105.316" fill="#E0E0E0"/>
<path d="M274.132 101.488C274.134 101.714 274.06 101.936 273.917 102.124C273.775 102.313 273.571 102.461 273.333 102.549C273.094 102.636 272.831 102.66 272.577 102.617C272.322 102.574 272.088 102.466 271.905 102.307C271.721 102.148 271.595 101.945 271.544 101.723C271.493 101.501 271.518 101.271 271.617 101.062C271.715 100.853 271.883 100.675 272.098 100.549C272.313 100.423 272.566 100.356 272.825 100.356C272.996 100.355 273.166 100.383 273.325 100.439C273.483 100.496 273.627 100.579 273.749 100.684C273.87 100.789 273.967 100.915 274.033 101.053C274.099 101.191 274.132 101.339 274.132 101.488Z" fill="#263238"/>
<path d="M280.515 101.488C280.515 101.712 280.439 101.931 280.296 102.117C280.154 102.303 279.951 102.448 279.714 102.534C279.477 102.62 279.216 102.642 278.965 102.598C278.713 102.555 278.482 102.447 278.301 102.289C278.119 102.13 277.996 101.928 277.946 101.709C277.896 101.489 277.921 101.262 278.02 101.055C278.118 100.848 278.284 100.671 278.497 100.547C278.711 100.422 278.961 100.356 279.218 100.356C279.562 100.356 279.892 100.475 280.135 100.687C280.378 100.9 280.515 101.188 280.515 101.488Z" fill="#263238"/>
<path d="M286.906 101.488C286.908 101.714 286.833 101.936 286.691 102.124C286.549 102.313 286.345 102.461 286.107 102.549C285.868 102.636 285.605 102.66 285.351 102.617C285.096 102.574 284.862 102.466 284.679 102.307C284.495 102.148 284.369 101.945 284.318 101.723C284.267 101.501 284.292 101.271 284.39 101.062C284.489 100.853 284.657 100.675 284.872 100.549C285.087 100.423 285.34 100.356 285.599 100.356C285.77 100.355 285.94 100.383 286.099 100.439C286.257 100.496 286.401 100.579 286.523 100.684C286.644 100.789 286.741 100.915 286.807 101.053C286.872 101.191 286.906 101.339 286.906 101.488Z" fill="#263238"/>
<path d="M302.747 142.545L285.197 160.265C281.883 158.302 279.161 155.671 277.26 152.594C275.359 149.517 274.335 146.085 274.276 142.59C274.276 130.27 287.132 120.125 302.747 120.125C318.361 120.125 331.217 130.261 331.217 142.59L302.747 142.545Z" fill="#CD5954"/>
<path d="M305.001 145.358C304.916 145.483 304.816 145.601 304.703 145.708L303.787 146.661L300.308 150.255C297.281 153.346 292.979 157.713 287.822 162.97V162.683C291.71 165.019 296.202 166.477 300.894 166.924C306.192 167.457 311.556 166.75 316.437 164.875C321.095 163.109 325.118 160.274 328.078 156.671C329.412 154.991 330.481 153.163 331.259 151.235C331.937 149.433 332.348 147.564 332.483 145.672L332.71 145.879L312.639 145.582L306.998 145.474L305.506 145.43C305.331 145.444 305.155 145.444 304.981 145.43C305.145 145.416 305.31 145.416 305.475 145.43H306.947H312.556L332.71 145.546H332.957V145.762C332.84 147.696 332.432 149.609 331.742 151.45C330.961 153.42 329.877 155.288 328.521 157.004C325.506 160.702 321.387 163.608 316.612 165.405C311.641 167.304 306.181 168.017 300.791 167.472C296.019 166.999 291.457 165.499 287.513 163.105L287.308 162.979L287.472 162.808L300.174 150.165L303.725 146.661L304.672 145.762C304.768 145.619 304.878 145.484 305.001 145.358Z" fill="#263238"/>
<path d="M314.851 130.594C315.732 130.594 316.447 129.97 316.447 129.201C316.447 128.432 315.732 127.808 314.851 127.808C313.97 127.808 313.256 128.432 313.256 129.201C313.256 129.97 313.97 130.594 314.851 130.594Z" fill="#263238"/>
<path d="M348.139 119.011C347.642 119.078 347.139 119.108 346.636 119.1L342.519 119.172C339.071 119.172 334.285 119.244 329.046 119.244H326.534L326.719 119.181C323.415 122.057 320.472 124.573 318.341 126.37L315.819 128.473C315.531 128.746 315.206 128.987 314.852 129.192C315.101 128.893 315.38 128.613 315.685 128.356C316.313 127.772 317.126 127.035 318.094 126.154C320.152 124.294 323.055 121.724 326.328 118.831L326.4 118.768H329.107C334.367 118.768 339.133 118.768 342.581 118.831L346.698 118.912C347.181 118.905 347.663 118.938 348.139 119.011Z" fill="#263238"/>
<path d="M384.288 136.516C384.295 136.355 384.319 136.196 384.36 136.039C384.422 135.716 384.504 135.276 384.617 134.709L385.647 129.686L389.362 111.66L389.579 111.885L349.714 111.93L349.971 111.741V111.831V111.939V112.146L349.879 112.559L349.704 113.395L349.354 115.048C349.117 116.144 348.89 117.232 348.654 118.31C348.201 120.467 347.751 122.587 347.305 124.672C346.41 128.824 345.556 132.76 344.763 136.543L344.516 136.291L373.233 136.39L381.468 136.453H383.66H384.226H384.432H384.257H383.712H381.56L373.408 136.507L344.588 136.606H344.3L344.351 136.354C345.144 132.607 345.978 128.626 346.863 124.465C347.295 122.39 347.748 120.269 348.201 118.112C348.438 117.025 348.664 115.938 348.901 114.841C349.014 114.293 349.127 113.745 349.251 113.188L349.426 112.361L349.508 111.948L349.559 111.732V111.633V111.553L349.827 111.355L389.692 111.4H389.836L389.784 111.624C388.138 119.146 386.779 125.355 385.832 129.713C385.348 131.843 384.978 133.514 384.71 134.691L384.411 135.976C384.329 136.381 384.288 136.525 384.288 136.516Z" fill="#263238"/>
<path d="M317.353 158.612C318.234 158.612 318.949 157.989 318.949 157.219C318.949 156.45 318.234 155.827 317.353 155.827C316.472 155.827 315.758 156.45 315.758 157.219C315.758 157.989 316.472 158.612 317.353 158.612Z" fill="#263238"/>
<path d="M346.317 157.219C346.317 157.354 339.833 157.453 331.835 157.453C323.838 157.453 317.353 157.354 317.353 157.219C317.353 157.084 323.838 156.985 331.835 156.985C339.833 156.985 346.317 157.093 346.317 157.219Z" fill="#263238"/>
<path d="M384.288 168.074C384.301 167.959 384.325 167.845 384.36 167.733C384.422 167.49 384.504 167.167 384.617 166.762C384.854 165.864 385.194 164.669 385.647 163.105C386.542 159.924 387.819 155.386 389.393 149.806L389.589 150.021L348.479 150.075L348.736 149.905V149.958V150.03V150.183L348.644 150.489L348.469 151.082L348.129 152.286C347.892 153.077 347.666 153.867 347.439 154.658L345.978 159.367C345.093 162.413 344.238 165.36 343.415 168.173L343.178 167.904L372.667 168.002L381.19 168.056H383.475H384.072H384.288H384.103H383.526H381.293L372.811 168.11L343.178 168.209H342.849L342.931 167.93C343.744 165.118 344.588 162.161 345.463 159.115C345.902 157.588 346.352 156.039 346.811 154.469L347.491 152.097L347.841 150.902L348.016 150.3L348.098 149.994V149.851V149.77V149.716L348.355 149.536L389.465 149.599H389.836L389.774 149.815C388.107 155.422 386.758 159.978 385.811 163.168C385.338 164.705 384.967 165.918 384.71 166.762C384.587 167.149 384.494 167.454 384.422 167.661C384.35 167.868 384.288 168.083 384.288 168.074Z" fill="#263238"/>
<path d="M381.046 119.325C381.046 119.46 374.942 119.559 367.408 119.559C359.873 119.559 353.77 119.46 353.77 119.325C353.77 119.19 359.873 119.091 367.408 119.091C374.942 119.091 381.046 119.199 381.046 119.325Z" fill="#263238"/>
<path d="M380.727 123.225C380.727 123.36 374.551 123.459 367.016 123.459C359.482 123.459 353.296 123.36 353.296 123.225C353.296 123.09 359.472 122.991 367.016 122.991C374.561 122.991 380.727 123.099 380.727 123.225Z" fill="#263238"/>
<path d="M379.934 127.018C379.934 127.143 374.005 127.251 366.697 127.251C359.389 127.251 353.45 127.143 353.45 127.018C353.45 126.892 359.379 126.784 366.697 126.784C374.016 126.784 379.934 126.856 379.934 127.018Z" fill="#263238"/>
<path d="M380.407 156.788C380.407 156.914 374.592 157.022 367.407 157.022C360.223 157.022 354.407 156.914 354.407 156.788C354.407 156.662 360.233 156.554 367.407 156.554C374.581 156.554 380.407 156.671 380.407 156.788Z" fill="#263238"/>
<path d="M378.812 161.101C378.812 161.236 373.851 161.335 367.727 161.335C361.602 161.335 356.641 161.236 356.641 161.101C356.641 160.967 361.602 160.868 367.727 160.868C373.851 160.868 378.812 160.976 378.812 161.101Z" fill="#263238"/>
<path d="M213.147 251.384C212.653 253.909 198.922 280.435 207.784 280.435H252.332C252.332 280.435 247.731 276.661 261.658 251.384H213.147Z" fill="#455A64"/>
<path d="M184.327 162.845L166.119 255.742H319.7L338.536 159.583L184.327 162.845Z" fill="#455A64"/>
<path d="M189.545 167.373L174.198 250.296H314.44L331.341 166.493L189.545 167.373Z" fill="#FAFAFA"/>
<path d="M338.536 159.583L341.439 161.29L321.882 258.267H170.174L166.119 255.742H319.7L338.536 159.583Z" fill="#263238"/>
<path d="M188.155 174.922C188.207 174.625 329.735 174.454 329.735 174.454L331.341 166.493L189.545 167.391L188.155 174.94" fill="#EBEBEB"/>
<path d="M292.341 242.937V242.703L292.465 242.011C292.595 241.352 292.77 240.453 292.99 239.315C293.474 236.898 294.153 233.429 294.997 229.125C296.747 220.409 299.186 208.278 301.955 194.511V194.313H313.545L313.493 194.592C309.201 214.891 305.444 232.729 303.272 242.982V243.089H303.159L295.09 243.017H293.031H292.527H293.082H295.213L303.19 242.946L303.046 243.044L313.01 194.619L313.277 194.888H302.243L302.5 194.7C299.649 208.385 297.148 220.436 295.295 229.107C294.39 233.42 293.649 236.898 293.134 239.324C292.877 240.501 292.681 241.427 292.537 242.092C292.465 242.388 292.413 242.631 292.372 242.811C292.364 242.853 292.354 242.895 292.341 242.937Z" fill="#263238"/>
<path d="M274.555 242.937C274.568 242.718 274.606 242.501 274.668 242.29C274.761 241.813 274.894 241.175 275.059 240.367C275.43 238.632 275.944 236.179 276.593 233.178C277.941 226.95 279.825 218.288 281.976 208.385V208.197H293.566L293.504 208.475C290.251 222.556 287.328 235.074 285.517 243.008V243.125H285.383L277.323 243.044H275.265C275.035 243.058 274.805 243.058 274.575 243.044H275.337H277.478L285.424 242.964L285.259 243.08C287.05 235.137 289.871 222.61 293.041 208.511L293.298 208.79H282.202L282.46 208.61C280.226 218.423 278.27 227.013 276.86 233.187C276.15 236.251 275.584 238.713 275.172 240.447L274.709 242.415C274.709 242.622 274.606 242.793 274.575 242.928L274.555 242.937Z" fill="#263238"/>
<path d="M256.696 242.937C256.688 242.841 256.688 242.745 256.696 242.649L256.861 241.751C257.016 240.96 257.232 239.828 257.52 238.372C258.117 235.398 258.971 231.111 260.042 225.792C262.224 215.008 265.26 200.083 268.698 183.162V182.973H280.288L280.236 183.243C274.864 208.934 270.118 231.318 267.607 242.937V243.036H267.494L259.393 242.964H257.335H256.655H257.386H259.496L267.504 242.901L267.381 242.991C269.727 231.309 274.359 208.943 279.732 183.261L280 183.539H268.997L269.254 183.342C265.744 200.172 262.635 215.053 260.392 225.756C259.259 231.093 258.333 235.398 257.715 238.381L256.974 241.805C256.892 242.182 256.83 242.479 256.779 242.703L256.696 242.937Z" fill="#263238"/>
<path d="M238.869 242.937C238.877 242.786 238.898 242.636 238.931 242.487C239.003 242.137 239.085 241.697 239.188 241.14C239.425 239.899 239.765 238.174 240.218 236.026C241.113 231.578 242.359 225.405 243.789 218.27V218.081H255.369L255.307 218.36C253.176 228.065 251.262 236.799 249.903 242.973V243.107H249.759L241.731 243.018L239.559 242.937C239.322 242.95 239.085 242.95 238.849 242.937H239.631H241.803L249.708 242.847L249.522 242.973C250.84 236.799 252.703 228.047 254.762 218.333L255.029 218.612H244.005L244.252 218.432C242.729 225.486 241.422 231.587 240.465 235.982C239.991 238.138 239.6 239.881 239.322 241.131C239.188 241.697 239.085 242.164 239.003 242.514C238.968 242.657 238.923 242.798 238.869 242.937Z" fill="#263238"/>
<path d="M221.031 242.937C221.031 242.937 221.031 242.874 221.031 242.748C221.031 242.622 221.031 242.397 221.124 242.164C221.226 241.616 221.36 240.861 221.535 239.89C221.916 237.869 222.451 234.975 223.12 231.381C224.52 224.066 226.455 213.894 228.668 202.311V202.122H240.258L240.196 202.401C236.8 219.142 233.804 233.942 231.962 242.964V243.08H231.839L223.789 243H221.679C221.45 243.013 221.219 243.013 220.99 243H221.185H221.741H223.882L231.839 242.928L231.684 243.035L239.692 202.437L239.96 202.715H228.977L229.234 202.527C226.939 214.029 224.922 224.093 223.47 231.381C222.729 234.975 222.143 237.895 221.721 239.935C221.515 240.915 221.36 241.733 221.237 242.245L221.103 242.856L221.031 242.937Z" fill="#263238"/>
<path d="M203.224 242.936C203.211 242.85 203.211 242.762 203.224 242.676C203.224 242.478 203.307 242.218 203.369 241.885C203.513 241.157 203.708 240.088 203.966 238.794C204.49 236.098 205.262 232.153 206.209 227.283C208.165 217.443 210.893 203.749 213.981 188.248V188.059H225.57L225.519 188.338C220.722 211.629 216.482 231.992 214.145 242.963V243.062H214.032L205.952 242.99H203.893H203.399H203.945H206.055L214.053 242.919L213.919 243.017C216.101 232.018 220.239 211.638 225.035 188.355L225.293 188.625H214.269L214.526 188.436C211.366 203.856 208.566 217.47 206.559 227.256C205.53 232.144 204.717 236.071 204.14 238.803C203.863 240.151 203.636 241.193 203.482 241.939C203.399 242.281 203.348 242.55 203.296 242.757C203.245 242.963 203.224 242.936 203.224 242.936Z" fill="#263238"/>
<path d="M195.474 171.111C195.476 171.338 195.401 171.559 195.258 171.748C195.116 171.937 194.913 172.084 194.674 172.172C194.435 172.26 194.172 172.284 193.918 172.241C193.664 172.198 193.43 172.09 193.246 171.931C193.062 171.771 192.937 171.568 192.885 171.346C192.834 171.125 192.859 170.895 192.958 170.686C193.057 170.477 193.224 170.298 193.439 170.172C193.654 170.046 193.908 169.979 194.167 169.979C194.511 169.979 194.842 170.098 195.087 170.31C195.332 170.522 195.471 170.81 195.474 171.111Z" fill="#263238"/>
<path d="M200.559 172.244C201.275 172.244 201.856 171.737 201.856 171.111C201.856 170.486 201.275 169.979 200.559 169.979C199.842 169.979 199.262 170.486 199.262 171.111C199.262 171.737 199.842 172.244 200.559 172.244Z" fill="#263238"/>
<path d="M208.248 171.112C208.25 171.338 208.175 171.56 208.032 171.749C207.889 171.938 207.685 172.086 207.445 172.173C207.206 172.261 206.943 172.284 206.688 172.24C206.433 172.196 206.2 172.088 206.016 171.927C205.833 171.767 205.708 171.563 205.658 171.341C205.608 171.119 205.635 170.889 205.735 170.68C205.835 170.471 206.004 170.293 206.221 170.168C206.437 170.043 206.691 169.978 206.951 169.979C207.294 169.982 207.622 170.102 207.865 170.314C208.107 170.525 208.245 170.812 208.248 171.112Z" fill="#263238"/>
<path d="M185.396 242.937C185.396 242.937 185.396 242.703 185.51 242.245C185.623 241.786 185.726 241.068 185.891 240.205C186.251 238.408 186.755 235.775 187.383 232.549C188.701 225.953 190.522 216.787 192.612 206.328V206.139H204.202L204.14 206.417C200.959 221.388 198.129 234.669 196.369 242.973V243.089H196.245L188.186 243.008H186.127C185.894 243.021 185.66 243.021 185.427 243.008H185.633H186.189H188.33L196.286 242.928L196.122 243.044L203.687 206.462L203.944 206.732H192.869L193.126 206.543C190.955 216.922 189.009 226.016 187.692 232.549C186.992 235.793 186.436 238.408 186.035 240.241C185.849 241.139 185.695 241.822 185.582 242.326L185.458 242.874C185.439 242.895 185.418 242.916 185.396 242.937Z" fill="#263238"/>
<path d="M305.711 206.373H246.959L250.315 189.156H309.478L305.711 206.373Z" fill="#CD5954"/>
<path d="M246.959 206.373L245.817 212.384C245.817 212.384 253.537 206.139 253.413 206.139H247.011" fill="#CD5954"/>
<path d="M300.616 195.14C300.616 195.266 290.827 195.374 278.764 195.374C266.701 195.374 256.902 195.266 256.902 195.14C256.902 195.015 266.69 194.907 278.764 194.907C290.838 194.907 300.616 195.015 300.616 195.14Z" fill="#FAFAFA"/>
<path d="M300.04 199.301C300.04 199.426 290.252 199.534 278.188 199.534C266.125 199.534 256.326 199.426 256.326 199.301C256.326 199.175 266.115 199.067 278.188 199.067C290.262 199.067 300.04 199.166 300.04 199.301Z" fill="#FAFAFA"/>
<path d="M396.135 286.384H228.751V371.652H396.135V286.384Z" fill="#263238"/>
<path d="M305.001 286.384H228.751V371.652H305.001V286.384Z" fill="#455A64"/>
<path d="M297.199 315.346C297.199 315.346 297.199 315.193 297.199 314.914C297.199 314.636 297.199 314.204 297.199 313.674C297.199 312.569 297.199 310.978 297.148 308.939C297.148 304.841 297.096 298.937 297.045 291.658L297.24 291.829L235.905 291.892C235.668 292.108 236.224 291.614 236.172 291.667V297.832C236.172 299.872 236.172 301.885 236.172 303.861C236.172 307.824 236.172 311.67 236.172 315.346L235.925 315.13L279.886 315.229L292.639 315.292H296.057H296.952H297.261C297.169 315.3 297.075 315.3 296.983 315.292H296.118H292.753L280.061 315.355L235.925 315.462H235.668V315.238C235.668 311.562 235.668 307.716 235.668 303.754V291.667C235.606 291.667 236.172 291.218 235.935 291.425L297.199 291.461H297.395V291.623C297.395 298.946 297.312 304.877 297.292 309.01C297.292 311.032 297.292 312.605 297.24 313.701C297.24 314.213 297.24 314.6 297.24 314.914C297.239 315.059 297.225 315.203 297.199 315.346Z" fill="#263238"/>
<path d="M269.171 303.502C269.171 303.502 269.11 303.304 268.986 302.972C268.814 302.512 268.479 302.113 268.029 301.831C267.704 301.626 267.326 301.494 266.929 301.449C266.532 301.403 266.128 301.445 265.754 301.57C265.302 301.717 264.912 301.982 264.637 302.328C264.361 302.674 264.214 303.085 264.214 303.507C264.214 303.928 264.361 304.339 264.637 304.685C264.912 305.031 265.302 305.296 265.754 305.443C266.129 305.563 266.532 305.603 266.928 305.557C267.324 305.512 267.702 305.383 268.029 305.182C268.479 304.901 268.814 304.501 268.986 304.041C269.11 303.709 269.12 303.502 269.171 303.502C269.223 303.502 269.254 303.709 269.171 304.086C269.052 304.621 268.72 305.101 268.235 305.443C267.867 305.704 267.429 305.878 266.962 305.949C266.495 306.02 266.016 305.985 265.569 305.847C265.013 305.678 264.531 305.361 264.19 304.942C263.85 304.522 263.667 304.021 263.667 303.507C263.667 302.992 263.85 302.491 264.19 302.072C264.531 301.652 265.013 301.336 265.569 301.166C266.015 301.03 266.494 300.995 266.96 301.064C267.426 301.133 267.865 301.304 268.235 301.561C268.722 301.906 269.053 302.389 269.171 302.927C269.254 303.304 269.202 303.511 269.171 303.502Z" fill="#263238"/>
<path d="M297.199 341.423C297.199 341.423 297.199 341.27 297.199 340.992C297.199 340.713 297.199 340.273 297.199 339.743C297.199 338.637 297.199 337.047 297.147 335.016C297.147 330.909 297.096 325.014 297.044 317.736L297.24 317.907L235.904 317.969L236.172 317.736V323.891C236.172 325.931 236.172 327.935 236.172 329.921C236.172 333.884 236.172 337.721 236.172 341.405L235.925 341.18L279.886 341.288L292.639 341.351H296.056H296.952C297.055 341.344 297.158 341.344 297.261 341.351H296.983H296.118H292.752L280.061 341.414L235.925 341.522H235.667V341.297C235.667 337.613 235.667 333.776 235.667 329.813V317.754L235.935 317.52L297.271 317.583H297.466V317.754C297.466 325.077 297.384 331.008 297.364 335.133C297.364 337.155 297.363 338.727 297.312 339.832C297.312 340.345 297.312 340.731 297.312 341.037C297.283 341.167 297.246 341.296 297.199 341.423Z" fill="#263238"/>
<path d="M269.171 329.579C269.171 329.579 269.11 329.373 268.986 329.04C268.814 328.581 268.479 328.181 268.029 327.899C267.702 327.698 267.324 327.569 266.928 327.524C266.532 327.479 266.129 327.518 265.754 327.638C265.302 327.786 264.912 328.05 264.637 328.396C264.361 328.742 264.214 329.153 264.214 329.575C264.214 329.996 264.361 330.407 264.637 330.754C264.912 331.1 265.302 331.364 265.754 331.511C266.128 331.635 266.531 331.677 266.927 331.633C267.324 331.589 267.702 331.461 268.029 331.26C268.482 330.976 268.817 330.573 268.986 330.109C269.11 329.777 269.12 329.579 269.171 329.579C269.223 329.579 269.254 329.786 269.171 330.154C269.055 330.693 268.723 331.177 268.235 331.52C267.866 331.78 267.427 331.952 266.961 332.021C266.494 332.091 266.015 332.054 265.569 331.916C265.013 331.746 264.531 331.429 264.19 331.01C263.85 330.59 263.667 330.089 263.667 329.575C263.667 329.061 263.85 328.559 264.19 328.14C264.531 327.72 265.013 327.404 265.569 327.234C266.016 327.097 266.495 327.062 266.962 327.132C267.429 327.203 267.867 327.377 268.235 327.638C268.723 327.982 269.055 328.466 269.171 329.004C269.254 329.373 269.202 329.579 269.171 329.579Z" fill="#263238"/>
<path d="M297.199 367.491C297.199 367.491 297.199 367.339 297.199 367.06C297.199 366.782 297.199 366.35 297.199 365.82C297.199 364.715 297.199 363.124 297.148 361.084C297.148 356.987 297.096 351.083 297.045 343.804L297.24 343.975L235.905 344.038C235.668 344.254 236.224 343.759 236.172 343.813V349.978C236.172 352.017 236.172 354.03 236.172 356.007C236.172 359.97 236.172 363.816 236.172 367.491L235.925 367.276L279.886 367.375L292.639 367.437H296.057H296.952H297.261C297.169 367.446 297.075 367.446 296.983 367.437H296.118H292.753L280.061 367.491L235.925 367.599H235.668V367.375C235.668 363.699 235.668 359.853 235.668 355.89V343.813C235.606 343.858 236.172 343.364 235.935 343.571L297.271 343.643H297.467V343.804C297.467 351.128 297.384 357.068 297.364 361.192C297.364 363.214 297.364 364.787 297.312 365.883C297.312 366.404 297.312 366.782 297.312 367.096C297.285 367.23 297.247 367.362 297.199 367.491Z" fill="#263238"/>
<path d="M269.171 355.648C269.171 355.648 269.11 355.45 268.986 355.118C268.814 354.658 268.479 354.258 268.029 353.976C267.703 353.774 267.325 353.644 266.929 353.598C266.532 353.553 266.129 353.593 265.754 353.716C265.302 353.863 264.912 354.127 264.637 354.474C264.361 354.82 264.214 355.231 264.214 355.652C264.214 356.074 264.361 356.485 264.637 356.831C264.912 357.177 265.302 357.442 265.754 357.589C266.129 357.712 266.532 357.752 266.929 357.707C267.325 357.661 267.703 357.531 268.029 357.328C268.479 357.046 268.814 356.647 268.986 356.187C269.11 355.855 269.12 355.648 269.171 355.648C269.223 355.648 269.254 355.855 269.171 356.232C269.051 356.769 268.72 357.252 268.235 357.598C267.865 357.855 267.426 358.026 266.96 358.095C266.494 358.164 266.015 358.129 265.569 357.993C265.013 357.823 264.531 357.507 264.19 357.087C263.85 356.668 263.667 356.167 263.667 355.652C263.667 355.138 263.85 354.637 264.19 354.217C264.531 353.798 265.013 353.481 265.569 353.311C266.015 353.175 266.494 353.14 266.96 353.21C267.426 353.279 267.865 353.45 268.235 353.707C268.722 354.051 269.053 354.535 269.171 355.073C269.254 355.45 269.202 355.657 269.171 355.648Z" fill="#263238"/>
<path d="M146.201 286.384H5.40381V371.652H146.201V286.384Z" fill="#263238"/>
<path d="M402.198 280.435H0V288.541H402.198V280.435Z" fill="#263238"/>
<path d="M17.8789 288.54H5.40381V371.652H17.8789V288.54Z" fill="#455A64"/>
<path d="M161.775 152.178C161.692 151.837 161.633 151.492 161.6 151.144C161.45 150.221 161.101 149.33 160.57 148.52C160.227 147.978 159.703 147.539 159.068 147.262C158.71 147.128 158.314 147.09 157.931 147.152C157.548 147.215 157.195 147.375 156.916 147.613C155.724 148.905 155.074 150.514 155.074 152.173C155.074 153.832 155.724 155.442 156.916 156.734C157.194 156.973 157.546 157.135 157.929 157.199C158.312 157.263 158.709 157.226 159.068 157.093C159.701 156.81 160.224 156.369 160.57 155.826C161.101 155.016 161.45 154.126 161.6 153.202C161.633 152.858 161.691 152.516 161.775 152.178C161.841 152.526 161.841 152.881 161.775 153.229C161.706 154.197 161.4 155.141 160.879 155.997C160.507 156.614 159.929 157.119 159.222 157.444C158.803 157.619 158.332 157.678 157.874 157.614C157.394 157.532 156.948 157.343 156.577 157.066C155.248 155.701 154.519 153.969 154.519 152.178C154.519 150.387 155.248 148.654 156.577 147.289C156.944 147.006 157.392 146.814 157.874 146.732C158.332 146.673 158.801 146.732 159.222 146.903C159.929 147.228 160.507 147.732 160.879 148.35C161.402 149.209 161.707 150.156 161.775 151.126C161.841 151.475 161.841 151.83 161.775 152.178Z" fill="#263238"/>
<path d="M117.339 134.61L114.251 188.454L140.746 190.629L142.207 177.554C142.207 177.554 151.471 179.567 154.353 172.046C156.154 167.238 157.76 129.596 157.76 129.596L117.339 134.61Z" fill="#FFBE9D"/>
<path d="M163.391 135.149C161.136 139.831 152.634 143.848 152.634 143.848L151.245 155.772C149.98 155.696 148.711 155.696 147.447 155.772C148.126 150.174 139.881 151.279 139.037 155.08C138.235 158.747 143.021 161.2 143.021 161.2C139.717 165.621 138.379 167.957 133.685 172.1C128.621 176.593 125.893 176.952 120.654 176.818L114.88 176.584C114.88 176.584 112.821 172.28 111.329 162.116C110.598 157.228 106.182 150.821 107.469 142.868C111.01 120.287 139.634 124.294 139.634 124.294C150.38 116.998 168.702 124.142 163.391 135.149Z" fill="#263238"/>
<path d="M161.775 152.241C159.821 152.569 157.836 152.738 155.846 152.744C153.867 152.897 151.876 152.897 149.896 152.744C151.848 152.421 153.829 152.255 155.815 152.25C157.797 152.096 159.791 152.093 161.775 152.241Z" fill="#263238"/>
<path d="M246.177 215.493L236.553 220.696L233.022 227.885V221.595C233.022 221.595 235.637 218.899 237.778 216.931C239.919 214.963 238.385 213.597 237.778 212.923C237.17 212.249 227.958 221.595 227.958 221.595V226.986C223.666 222.376 221.679 223.958 221.021 224.794C220.362 225.629 227.958 231.884 227.958 231.884V233.789L190.214 251.509L180.281 229.943L159.994 239.243L172.108 264.844C172.944 266.615 174.206 268.209 175.809 269.516C177.412 270.824 179.318 271.816 181.399 272.423C183.479 273.031 185.685 273.241 187.867 273.039C190.049 272.836 192.155 272.227 194.043 271.251L238.457 248.328L241.411 244.024C242.437 242.54 243.04 240.864 243.171 239.135L244.705 219.77C247.402 218.297 246.177 215.493 246.177 215.493Z" fill="#FFBE9D"/>
<path d="M190.399 251.536C189.503 254.568 188.254 257.513 186.673 260.324C187.582 257.295 188.83 254.352 190.399 251.536Z" fill="#EB996E"/>
<path d="M244.705 219.771C244.137 220.026 243.553 220.254 242.956 220.453C242.274 220.735 241.666 221.136 241.169 221.63C240.672 222.125 240.295 222.703 240.063 223.329C239.294 225.138 238.358 226.891 237.264 228.568C237.867 226.72 238.638 224.917 239.569 223.176C239.87 222.441 240.348 221.77 240.969 221.208C241.503 220.776 242.119 220.429 242.791 220.184C243.385 219.92 244.04 219.779 244.705 219.771Z" fill="#EB996E"/>
<path d="M244.561 222.835C244.394 222.854 244.234 222.906 244.093 222.987C243.953 223.068 243.834 223.176 243.748 223.302C243.449 223.805 243.069 224.596 242.719 225.441C242.332 226.51 241.878 227.56 241.36 228.586C241.361 227.439 241.653 226.307 242.214 225.27C242.547 224.514 242.971 223.791 243.48 223.113C243.573 223.001 243.693 222.907 243.832 222.839C243.971 222.77 244.124 222.729 244.283 222.718C244.479 222.718 244.571 222.808 244.561 222.835Z" fill="#EB996E"/>
<path d="M153.932 235.963L158.244 248.714L185.613 237.931C184.584 235.235 180.096 223.365 171.44 204.494C169.07 199.32 165.214 194.766 160.244 191.269C155.274 187.772 149.357 185.45 143.062 184.527C134.107 183.224 124.36 182.209 116.856 182.29C109.407 182.35 102.207 184.641 96.4589 188.779C90.7113 192.917 86.7643 198.651 85.2775 205.024C82.9616 215.044 87.017 221.666 84.4026 243.592L83.5688 298.739L156.649 301.085L153.932 235.963Z" fill="#CD5954"/>
<path d="M87.7993 243.008C87.7993 243.008 77.6402 243.53 73.6465 236.817C73.6465 236.817 84.5879 201.502 88.4066 197.342L87.7993 243.008Z" fill="#CD5954"/>
<path d="M172.819 208.053C172.557 208.229 172.265 208.369 171.954 208.466C171.059 208.75 170.117 208.904 169.165 208.924C167.669 208.918 166.179 208.752 164.729 208.43C163.041 208.098 161.157 207.603 159.047 207.298C157.947 207.182 156.84 207.131 155.733 207.145C154.534 207.228 153.346 207.399 152.181 207.657C149.597 208.27 147.116 209.177 144.801 210.353C142.3 211.539 139.758 212.941 137.051 214.325C134.273 215.83 131.297 217.037 128.189 217.919C124.994 218.783 121.583 218.83 118.359 218.054C115.435 217.228 112.71 215.94 110.32 214.253C108.025 212.698 106.028 211.063 104.144 209.571C102.426 208.173 100.604 206.876 98.6889 205.689C95.9628 203.911 92.7847 202.733 89.4253 202.257C88.1842 202.196 86.9403 202.196 85.6992 202.257C86.0027 202.149 86.3211 202.077 86.6462 202.041C87.5785 201.911 88.5243 201.872 89.4664 201.924C92.936 202.276 96.2452 203.396 99.0801 205.177C101.057 206.342 102.936 207.631 104.7 209.032C106.615 210.506 108.632 212.105 110.876 213.597C113.183 215.193 115.802 216.41 118.606 217.191C121.648 217.907 124.86 217.854 127.87 217.039C130.893 216.176 133.791 215.009 136.505 213.561C139.192 212.204 141.755 210.802 144.307 209.616C146.708 208.425 149.28 207.519 151.955 206.92C153.179 206.665 154.425 206.503 155.681 206.435C156.842 206.446 158.001 206.524 159.15 206.669C161.332 207.028 163.195 207.567 164.852 207.945C166.251 208.297 167.691 208.508 169.144 208.574C170.393 208.568 171.632 208.392 172.819 208.053Z" fill="#263238"/>
<path d="M154.415 252.057C153.02 251.332 151.479 250.844 149.876 250.62C148.129 250.44 146.36 250.525 144.647 250.871C142.691 251.213 140.581 251.833 138.265 252.336C134.291 253.228 130.13 253.277 126.13 252.48C123.042 251.851 121.385 250.997 121.436 250.907C121.488 250.817 123.279 251.383 126.284 251.806C130.182 252.385 134.175 252.247 138.008 251.401C140.262 250.907 142.413 250.305 144.462 249.991C146.287 249.668 148.166 249.65 149.999 249.937C151.24 250.129 152.42 250.552 153.458 251.177C154.178 251.671 154.466 252.021 154.415 252.057Z" fill="#263238"/>
<path d="M155.156 284.982C155.156 284.982 154.878 285.386 154.188 285.953C153.192 286.748 152.077 287.422 150.874 287.957C149.069 288.775 147.072 289.218 145.038 289.25C142.556 289.191 140.109 288.715 137.833 287.849C135.435 287.031 133.242 286.114 131.173 285.602C129.345 285.115 127.431 284.92 125.523 285.027C124.248 285.094 123.005 285.4 121.879 285.926C121.076 286.312 120.705 286.627 120.633 286.564C120.561 286.501 120.88 286.123 121.663 285.665C122.779 284.959 124.082 284.514 125.451 284.371C127.459 284.166 129.493 284.304 131.441 284.775C133.751 285.402 136.019 286.14 138.234 286.986C140.381 287.806 142.678 288.284 145.017 288.397C146.917 288.404 148.796 288.051 150.524 287.363C153.561 286.168 155.053 284.847 155.156 284.982Z" fill="#263238"/>
<g opacity="0.3">
<path d="M75.8999 243.628C85.4724 245.336 95.3021 243.628 105.05 243.107C110.968 242.802 117.525 242.208 122.198 245.416C125.903 247.933 127.344 252.165 128.466 256.155C132.583 271.377 133.293 284.973 134.21 300.581L86.8619 299.683L75.8999 243.628Z" fill="black"/>
</g>
<path opacity="0.3" d="M88.406 214.972L90.4543 240.744H84.2168L88.406 214.972Z" fill="black"/>
<path d="M101.705 298.704L195.679 301.606C203.013 301.831 209.952 304.559 215.007 309.203C220.061 313.848 222.826 320.038 222.709 326.443L221.885 373H187.424L185.201 332.859L101.705 330.936V298.704Z" fill="#263238"/>
<path d="M133.222 341.27H123.979V370.807H133.222V341.27Z" fill="#455A64"/>
<path d="M46.4214 247.429V318.599C46.4241 323.08 48.4651 327.377 52.0957 330.545C55.7264 333.713 60.6494 335.492 65.7824 335.492H120.068V247.429C120.065 245.431 119.154 243.516 117.535 242.104C115.915 240.692 113.72 239.899 111.432 239.899H55.0469C52.7593 239.899 50.5653 240.693 48.9477 242.105C47.3301 243.517 46.4214 245.432 46.4214 247.429Z" fill="#455A64"/>
<path d="M193.127 341.27H60.9243C60.9406 337.943 62.4661 334.757 65.1667 332.41C67.8674 330.062 71.5233 328.744 75.3345 328.744H178.83C182.636 328.744 186.285 330.064 188.976 332.413C191.667 334.762 193.179 337.948 193.179 341.27H193.127Z" fill="#455A64"/>
<path d="M120.067 327.081C120.127 327.784 120.058 328.491 119.861 329.175C119.418 330.777 118.452 332.233 117.08 333.366C115.708 334.498 113.989 335.259 112.131 335.555C111.291 335.674 110.44 335.725 109.589 335.708H106.923H95.0451H73.4299L66.8939 335.636H65.1132C64.9055 335.642 64.6979 335.624 64.4956 335.582C64.6998 335.553 64.9063 335.538 65.1132 335.537L66.8939 335.492L73.4299 335.411L95.0451 335.322H109.589C110.415 335.349 111.243 335.307 112.059 335.196C113.505 334.978 114.87 334.463 116.043 333.695C117.784 332.572 119.041 330.97 119.614 329.148C120.047 327.836 119.995 327.072 120.067 327.081Z" fill="#263238"/>
<path d="M136.701 341.513C134.01 341.75 131.303 341.828 128.6 341.746C125.894 341.828 123.184 341.75 120.489 341.513C123.184 341.281 125.894 341.203 128.6 341.279C131.303 341.203 134.009 341.281 136.701 341.513Z" fill="#263238"/>
<path d="M176.926 336.121C176.798 335.833 176.715 335.53 176.679 335.223C176.545 334.639 176.37 333.794 176.164 332.698C175.742 330.496 175.135 327.306 174.476 323.388C174.106 321.429 173.807 319.246 173.313 316.972C173.179 316.406 173.056 315.831 172.922 315.238C172.788 314.645 172.531 314.088 172.335 313.495C172.232 313.207 172.14 312.901 172.037 312.596C171.934 312.29 171.779 312.012 171.646 311.697C171.368 311.104 171.121 310.502 170.822 309.9C169.515 307.439 167.862 305.13 165.902 303.026C163.761 300.791 161.27 298.83 158.501 297.203C155.745 295.556 152.719 294.284 149.526 293.429C146.562 292.608 143.483 292.148 140.376 292.063C134.385 291.946 128.93 291.973 124.38 291.919C119.831 291.865 116.146 291.82 113.593 291.766C112.317 291.766 111.329 291.712 110.649 291.676C110.303 291.686 109.957 291.656 109.62 291.587C109.956 291.511 110.303 291.478 110.649 291.488L113.593 291.398C116.136 291.344 119.831 291.299 124.38 291.254C128.93 291.209 134.354 291.128 140.406 291.2C143.61 291.26 146.788 291.717 149.845 292.557C153.145 293.419 156.271 294.726 159.109 296.43C161.968 298.101 164.534 300.126 166.725 302.442C168.732 304.618 170.416 307.006 171.738 309.55C172.037 310.161 172.284 310.79 172.562 311.392C172.685 311.697 172.819 311.994 172.953 312.29C173.087 312.587 173.148 312.901 173.251 313.189C173.447 313.8 173.632 314.393 173.817 314.986C174.003 315.579 174.075 316.181 174.198 316.783C174.661 319.111 174.908 321.276 175.227 323.235C175.814 327.18 176.257 330.379 176.576 332.59C176.72 333.695 176.833 334.558 176.895 335.142C176.962 335.465 176.972 335.795 176.926 336.121Z" fill="#455A64"/>
<path d="M10.0976 249.999C10.0976 249.999 8.43013 254.07 11.6209 257.017H18.2599C18.2599 257.017 17.6732 250.44 10.0976 249.999Z" fill="#CD5954"/>
<path opacity="0.4" d="M10.0976 249.999C10.0976 249.999 8.43013 254.07 11.6209 257.017H18.2599C18.2599 257.017 17.6732 250.44 10.0976 249.999Z" fill="black"/>
<path d="M21.4094 241.616C21.1315 241.328 15.4498 249.092 18.6406 257.018H24.8987C24.8987 257.018 27.3485 247.798 21.4094 241.616Z" fill="#CD5954"/>
<path d="M32.4946 249.999C30.4489 250.119 28.5303 250.909 27.1221 252.21C25.7139 253.511 24.9198 255.228 24.8984 257.017H31.1463C31.1463 257.017 33.8842 253.657 32.4946 249.999Z" fill="#CD5954"/>
<path d="M11.1063 256.712C8.94797 258.065 7.27396 259.924 6.27905 262.075C5.28415 264.226 5.00925 266.579 5.48635 268.861C7.09206 276.948 16.8704 280.435 16.8704 280.435H27.7089C27.7089 280.435 38.7429 276.185 38.4753 267.441C38.2077 258.698 31.6408 256.838 31.6408 256.838L11.1063 256.712Z" fill="#455A64"/>
<path d="M38.4336 266.462C38.1882 266.101 37.8869 265.771 37.5381 265.482C37.0341 265.131 36.4552 264.871 35.835 264.717C35.2147 264.562 34.5656 264.517 33.9253 264.584C32.0084 264.901 30.1971 265.589 28.6244 266.597C27.6254 267.154 26.5672 267.627 25.4644 268.007C24.2477 268.412 22.9299 268.526 21.6458 268.34C19.0005 267.945 16.8904 266.704 14.9142 265.878C13.2326 265.021 11.2998 264.615 9.35596 264.71C8.05643 264.827 6.85325 265.362 5.97986 266.21C5.68801 266.545 5.43947 266.906 5.23877 267.289C5.24565 267.175 5.26988 267.064 5.31082 266.956C5.41749 266.633 5.58819 266.329 5.81518 266.058C6.67826 265.112 7.93062 264.5 9.30449 264.35C11.3481 264.194 13.3973 264.592 15.1715 265.491C17.2301 266.318 19.2887 267.513 21.7693 267.873C22.9655 268.052 24.1948 267.95 25.3306 267.576C26.4069 267.21 27.4408 266.756 28.4185 266.219C30.06 265.202 31.9478 264.529 33.9356 264.251C34.6212 264.193 35.3133 264.26 35.9674 264.449C36.6215 264.638 37.2231 264.944 37.7337 265.348C37.9993 265.575 38.2155 265.843 38.3718 266.138C38.4233 266.345 38.4542 266.453 38.4336 266.462Z" fill="#263238"/>
<path d="M38.5879 268.573C38.3409 268.219 38.0435 267.892 37.7027 267.603C37.2063 267.249 36.6329 266.987 36.0172 266.833C35.4015 266.678 34.7563 266.635 34.1207 266.704C32.225 267.023 30.4349 267.707 28.8816 268.708C27.9085 269.269 26.8742 269.745 25.7937 270.128C24.5881 270.533 23.2798 270.648 22.0059 270.46C19.3812 270.065 17.2917 268.825 15.336 267.998C13.6804 267.143 11.7708 266.736 9.8499 266.83C8.55877 266.953 7.3663 267.491 6.50469 268.34C6.21725 268.67 5.97542 269.029 5.78418 269.409C5.78418 269.409 5.78418 269.292 5.84593 269.077C5.95729 268.771 6.1241 268.483 6.34 268.223C7.18924 267.28 8.42647 266.665 9.78814 266.507C11.7974 266.347 13.8139 266.733 15.5625 267.612C17.5593 268.439 19.6797 269.634 22.0882 269.993C23.2708 270.173 24.487 270.07 25.6084 269.697C26.6688 269.332 27.6857 268.877 28.6448 268.34C30.267 267.322 32.1383 266.648 34.1104 266.372C34.7815 266.319 35.4577 266.39 36.0958 266.578C36.7338 266.767 37.3197 267.07 37.8159 267.468C38.0768 267.694 38.2894 267.959 38.4438 268.25C38.512 268.35 38.5607 268.459 38.5879 268.573Z" fill="#263238"/>
<path d="M10.4578 268.52C10.4578 268.466 10.746 268.304 11.1268 268.574C11.2419 268.66 11.3242 268.775 11.3627 268.904C11.4013 269.032 11.3944 269.168 11.3429 269.292C11.2796 269.446 11.1608 269.578 11.0045 269.668C10.8481 269.757 10.6626 269.8 10.4757 269.79C10.2889 269.78 10.1109 269.717 9.96848 269.611C9.82603 269.505 9.72683 269.362 9.68578 269.203C9.6496 269.079 9.65253 268.95 9.69423 268.828C9.73594 268.706 9.81485 268.596 9.92252 268.511C10.2931 268.241 10.6121 268.367 10.5916 268.421C10.571 268.475 10.3651 268.52 10.2107 268.735C10.1774 268.789 10.1599 268.849 10.1599 268.91C10.1599 268.972 10.1774 269.032 10.2107 269.086C10.2409 269.149 10.2888 269.204 10.35 269.246C10.4112 269.289 10.4836 269.317 10.5607 269.328C10.6367 269.326 10.7107 269.307 10.7756 269.272C10.8405 269.237 10.8941 269.189 10.9312 269.131C10.9657 269.08 10.9839 269.023 10.9839 268.964C10.9839 268.906 10.9657 268.848 10.9312 268.798C10.7048 268.591 10.468 268.582 10.4578 268.52Z" fill="#263238"/>
<path d="M22.7372 265.105C22.7372 265.051 23.0254 264.88 23.4165 265.159C23.5275 265.248 23.6062 265.364 23.6427 265.491C23.6793 265.619 23.6722 265.753 23.6224 265.878C23.5574 266.03 23.4388 266.161 23.2835 266.252C23.1282 266.342 22.9442 266.387 22.7577 266.381C22.5717 266.366 22.3957 266.3 22.2538 266.194C22.1119 266.088 22.0111 265.946 21.9652 265.788C21.9278 265.664 21.9312 265.533 21.9749 265.411C22.0186 265.289 22.1008 265.179 22.2122 265.096C22.5828 264.826 22.9018 264.952 22.871 265.006C22.8401 265.06 22.6445 265.105 22.4901 265.321C22.4593 265.375 22.4432 265.435 22.4432 265.496C22.4432 265.557 22.4593 265.617 22.4901 265.671C22.5203 265.734 22.5682 265.789 22.6294 265.832C22.6906 265.874 22.763 265.902 22.8401 265.914C22.9163 265.912 22.9908 265.893 23.0559 265.858C23.1209 265.824 23.1743 265.775 23.2106 265.716C23.2462 265.666 23.2651 265.608 23.2651 265.55C23.2651 265.491 23.2462 265.433 23.2106 265.383C22.9842 265.177 22.7474 265.168 22.7372 265.105Z" fill="#263238"/>
<path d="M34.646 268.672C34.646 268.618 34.9342 268.457 35.3253 268.726C35.4363 268.815 35.515 268.931 35.5516 269.059C35.5881 269.186 35.5811 269.321 35.5312 269.445C35.4662 269.598 35.3476 269.729 35.1923 269.819C35.0371 269.909 34.853 269.955 34.6666 269.948C34.4818 269.934 34.3068 269.87 34.165 269.765C34.0233 269.661 33.9217 269.521 33.874 269.364C33.837 269.239 33.8405 269.107 33.8841 268.983C33.9277 268.86 34.0097 268.749 34.121 268.663C34.4916 268.394 34.8107 268.52 34.7798 268.573C34.7489 268.627 34.5533 268.681 34.3989 268.888C34.3556 268.941 34.3289 269.003 34.3213 269.068C34.3137 269.133 34.3255 269.199 34.3555 269.258C34.3856 269.318 34.4329 269.37 34.4928 269.409C34.5528 269.448 34.6233 269.473 34.6974 269.481C34.7737 269.48 34.8481 269.46 34.9132 269.426C34.9783 269.391 35.0317 269.342 35.068 269.283C35.1036 269.233 35.1224 269.176 35.1224 269.117C35.1224 269.058 35.1036 269.001 35.068 268.951C34.893 268.753 34.6666 268.735 34.646 268.672Z" fill="#263238"/>
<path d="M347.964 248.463L351.494 280.435H369.342L373.614 248.463H347.964Z" fill="#455A64"/>
<path d="M347.964 244.33C346.866 245.527 346.273 247.019 346.286 248.553H375.292C375.433 247.783 375.354 246.994 375.061 246.257C374.768 245.52 374.271 244.858 373.614 244.33H347.964Z" fill="#263238"/>
<path d="M351.268 241.4L350.29 244.563L372.183 244.707L370.732 241.364L351.268 241.4Z" fill="#263238"/>
<path d="M347.634 256.469C347.634 256.766 349.693 272.59 349.693 272.59H371.504L373.562 256.496L347.634 256.469Z" fill="#CD5954"/>
</svg>
