<svg width="450" height="320" viewBox="0 0 450 320" fill="none" xmlns="http://www.w3.org/2000/svg">
<path d="M110.618 172.947H36.7166V310.838H110.618V172.947Z" fill="#E0E0E0"/>
<path d="M88.686 172.947H14.7849V310.838H88.686V172.947Z" fill="#F5F5F5"/>
<path d="M83.2457 201.333H19.8118V179.47H83.2457V201.333ZM20.5912 200.564H82.4664V180.239H20.5912V200.564Z" fill="#E0E0E0"/>
<path d="M39.9199 179.854H63.995V180.401C63.995 181.411 63.5886 182.379 62.8651 183.093C62.1416 183.807 61.1603 184.209 60.1371 184.209H43.7701C42.7469 184.209 41.7656 183.807 41.0421 183.093C40.3186 182.379 39.9121 181.411 39.9121 180.401V179.854H39.9199Z" fill="#EBEBEB"/>
<path d="M83.2457 229.096H19.8118V207.241H83.2457V229.096ZM20.5912 228.326H82.4664V208.01H20.5912V228.326Z" fill="#E0E0E0"/>
<path d="M39.9199 207.625H63.995V208.172C63.995 209.182 63.5886 210.15 62.8651 210.864C62.1416 211.578 61.1603 211.98 60.1371 211.98H43.7701C42.7469 211.98 41.7656 211.578 41.0421 210.864C40.3186 210.15 39.9121 209.182 39.9121 208.172V207.625H39.9199Z" fill="#EBEBEB"/>
<path d="M83.2457 256.858H19.8118V235.003H83.2457V256.858ZM20.5912 256.089H82.4664V235.773H20.5912V256.089Z" fill="#E0E0E0"/>
<path d="M39.9199 235.388H63.9951V235.911C63.9951 236.921 63.5886 237.89 62.8651 238.604C62.1416 239.318 61.1603 239.719 60.1371 239.719H43.7701C42.7482 239.717 41.769 239.315 41.0471 238.601C40.3253 237.887 39.9199 236.92 39.9199 235.911V235.365V235.388Z" fill="#EBEBEB"/>
<path d="M83.2457 284.621H19.8118V262.766H83.2457V284.621ZM20.5912 283.852H82.4664V263.535H20.5912V283.852Z" fill="#E0E0E0"/>
<path d="M39.9199 263.151H63.995V263.697C63.995 264.707 63.5886 265.676 62.8651 266.39C62.1416 267.104 61.1603 267.505 60.1371 267.505H43.7701C42.7469 267.505 41.7656 267.104 41.0421 266.39C40.3186 265.676 39.9121 264.707 39.9121 263.697V263.151H39.9199Z" fill="#EBEBEB"/>
<path d="M91.7801 167.786H11.5037V174.655H91.7801V167.786Z" fill="#EBEBEB"/>
<path d="M115.91 167.786H91.7722V174.655H115.91V167.786Z" fill="#E0E0E0"/>
<path d="M18.6662 310.838H14.7849V317.884H18.6662V310.838Z" fill="#E0E0E0"/>
<path d="M42.6557 310.838H38.7744V317.884H42.6557V310.838Z" fill="#E0E0E0"/>
<path d="M86.488 310.838H82.6067V317.884H86.488V310.838Z" fill="#E0E0E0"/>
<path d="M108.405 310.838H104.523V317.884H108.405V310.838Z" fill="#E0E0E0"/>
<path d="M416.027 148.676C412.317 148.761 410.08 152.93 409.885 156.584C409.69 160.238 410.665 163.977 409.799 167.523C408.646 172.031 404.601 175.416 403.564 179.939C402.317 185.286 405.521 190.609 405.903 196.094C406.105 198.756 405.645 201.479 406.269 204.071C406.803 206.282 408.099 208.24 409.934 209.612C411.77 210.985 414.031 211.685 416.332 211.594C418.632 211.503 420.829 210.627 422.548 209.114C424.266 207.602 425.399 205.547 425.753 203.302C426.416 199.163 424.366 194.902 425.27 190.801C425.933 187.77 428.154 185.124 428.193 182.024C428.24 178.339 425.2 175.301 424.483 171.677C423.766 168.054 425.457 164.408 425.559 160.723C425.73 154.107 422.706 149.069 416.019 148.684" fill="#EBEBEB"/>
<path d="M417.858 165.946C417.877 166.141 417.877 166.337 417.858 166.531C417.858 166.946 417.796 167.508 417.749 168.208C417.64 169.7 417.484 171.8 417.289 174.362C416.892 179.57 416.354 186.763 415.809 194.717C415.263 202.671 414.811 209.871 414.499 215.079C414.336 217.664 414.203 219.764 414.11 221.234C414.063 221.934 414.024 222.495 413.993 222.911C413.989 223.107 413.966 223.303 413.922 223.495C413.912 223.298 413.912 223.1 413.922 222.903C413.922 222.495 413.922 221.934 413.977 221.226C414.039 219.733 414.133 217.633 414.25 215.072C414.507 209.848 414.912 202.648 415.458 194.694C416.003 186.74 416.58 179.547 417.017 174.347C417.258 171.77 417.453 169.67 417.593 168.193C417.664 167.485 417.726 166.931 417.765 166.516C417.785 166.324 417.817 166.134 417.858 165.946Z" fill="#E0E0E0"/>
<path d="M415.255 237.134C416.808 237.134 418.345 236.833 419.78 236.246C421.214 235.66 422.518 234.8 423.616 233.717C424.714 232.633 425.584 231.346 426.179 229.931C426.773 228.515 427.079 226.997 427.079 225.465V213.795H403.432V225.465C403.432 228.56 404.678 231.528 406.895 233.717C409.112 235.905 412.12 237.134 415.255 237.134Z" fill="#E0E0E0"/>
<path d="M403.432 219.533C403.568 219.604 403.696 219.689 403.814 219.787L404.851 220.556L408.514 223.479H408.311L415.131 219.356L415.24 219.294L415.349 219.364L421.693 223.487H421.49L425.504 220.564L426.634 219.794C426.766 219.693 426.91 219.608 427.063 219.541C426.958 219.668 426.838 219.781 426.704 219.879L425.621 220.748L421.724 223.779L421.631 223.856L421.529 223.787L415.146 219.71H415.349L408.498 223.772L408.389 223.833L408.303 223.756C406.861 222.541 405.653 221.51 404.734 220.725L403.759 219.864C403.533 219.664 403.416 219.548 403.432 219.533Z" fill="white"/>
<path d="M403.432 217.203C403.57 217.27 403.699 217.356 403.814 217.457L404.851 218.226L408.514 221.157H408.311L415.131 217.034L415.24 216.964L415.349 217.034L421.693 221.165H421.49L425.504 218.241L426.634 217.472C426.764 217.367 426.908 217.281 427.063 217.218C426.958 217.345 426.838 217.459 426.704 217.557L425.621 218.426L421.724 221.457L421.631 221.534L421.529 221.465L415.146 217.387H415.349L408.498 221.457L408.389 221.518L408.303 221.441L404.734 218.411L403.759 217.541C403.533 217.334 403.416 217.218 403.432 217.203Z" fill="white"/>
<path d="M403.432 221.91C403.57 221.978 403.699 222.063 403.814 222.164L404.851 222.933L408.514 225.864H408.311L415.131 221.741L415.24 221.672L415.349 221.741L421.693 225.872H421.49L425.504 222.949L426.634 222.18C426.764 222.074 426.908 221.989 427.063 221.926C426.959 222.051 426.838 222.162 426.704 222.257L425.621 223.126L421.724 226.164L421.631 226.234L421.529 226.172L415.146 222.095H415.349L408.498 226.164L408.389 226.226L408.303 226.149L404.734 223.118L403.759 222.249C403.533 222.064 403.416 221.926 403.432 221.91Z" fill="white"/>
<path d="M432.051 296.083L439.595 317.446H435.823L422.612 296.083H432.051Z" fill="#EBEBEB"/>
<path d="M388.74 296.083L381.196 317.446H384.968L398.179 296.083H388.74Z" fill="#EBEBEB"/>
<path d="M370.784 296.614H431.1V237.08H370.784V296.614Z" fill="#EBEBEB"/>
<path d="M389.684 296.614H450V237.08H389.684V296.614Z" fill="#F5F5F5"/>
<path d="M446.017 292.945H393.666V241.296H446.017V292.945ZM394.445 292.175H445.238V242.065H394.445V292.175Z" fill="#E0E0E0"/>
<path d="M445.324 257.32C428.302 256.827 411.085 256.958 394.056 257.32C394.008 257.329 393.965 257.354 393.934 257.391C393.903 257.429 393.886 257.475 393.886 257.523C393.886 257.572 393.903 257.618 393.934 257.656C393.965 257.693 394.008 257.718 394.056 257.727C411.085 258.066 428.302 258.197 445.324 257.727C445.366 257.719 445.404 257.696 445.431 257.663C445.458 257.63 445.473 257.589 445.473 257.547C445.473 257.504 445.458 257.463 445.431 257.43C445.404 257.397 445.366 257.374 445.324 257.366V257.32Z" fill="#E0E0E0"/>
<path d="M418.373 250.012C418.371 250.3 418.456 250.581 418.617 250.821C418.778 251.062 419.007 251.249 419.276 251.36C419.545 251.472 419.842 251.501 420.128 251.446C420.414 251.391 420.678 251.253 420.884 251.05C421.091 250.847 421.232 250.588 421.29 250.306C421.347 250.024 421.318 249.731 421.207 249.465C421.096 249.199 420.907 248.971 420.665 248.811C420.422 248.651 420.137 248.565 419.846 248.565C419.456 248.565 419.083 248.718 418.807 248.989C418.531 249.26 418.375 249.627 418.373 250.012Z" fill="#EBEBEB"/>
<path d="M439.525 273.267C439.527 273.552 439.614 273.831 439.776 274.068C439.938 274.305 440.167 274.489 440.435 274.597C440.703 274.706 440.997 274.733 441.281 274.676C441.565 274.62 441.825 274.481 442.029 274.279C442.233 274.076 442.372 273.819 442.428 273.538C442.484 273.258 442.455 272.968 442.343 272.704C442.232 272.44 442.044 272.215 441.804 272.056C441.563 271.897 441.28 271.813 440.99 271.813C440.797 271.813 440.606 271.85 440.428 271.924C440.25 271.997 440.088 272.104 439.952 272.239C439.815 272.374 439.708 272.534 439.634 272.711C439.561 272.887 439.524 273.076 439.525 273.267Z" fill="#EBEBEB"/>
<path d="M59.202 149.276L66.684 168.17L62.0311 168.146L58.3057 156.538L59.202 149.276Z" fill="#E0E0E0"/>
<path d="M33.6538 131.822L31.0818 168.016L57.6354 168.562L60.6204 131.822H33.6538Z" fill="#EBEBEB"/>
<path d="M36.3115 134.737L34.176 164.862L53.91 165.777L56.669 134.561L36.3115 134.737Z" fill="#FAFAFA"/>
<path d="M40.6446 139L39.0391 160.177H49.927L51.8521 139H40.6446Z" fill="#E0E0E0"/>
<path d="M409.55 28.6245H323.865V111.721H409.55V28.6245Z" fill="#E0E0E0"/>
<path d="M406.526 30.8936H326.85V109.536H406.526V30.8936Z" fill="#FAFAFA"/>
<path d="M379.684 57.3872H353.692V83.0423H379.684V57.3872Z" fill="#E0E0E0"/>
<path d="M444.591 317.877C444.591 317.992 345.056 318.077 222.303 318.077C99.5506 318.077 0 317.992 0 317.877C0 317.761 99.5116 317.677 222.303 317.677C345.095 317.677 444.591 317.769 444.591 317.877Z" fill="#263238"/>
<path d="M277.436 135.246L272.319 204.519C272.083 207.714 274.516 210.493 277.753 210.726L391.988 218.947C395.225 219.18 398.04 216.778 398.276 213.583L403.393 144.31C403.629 141.115 401.197 138.336 397.96 138.104L283.725 129.883C280.488 129.65 277.672 132.051 277.436 135.246Z" fill="#CD5954"/>
<path d="M285.215 181.97L284.701 188.894L283.983 188.84L284.443 182.57L282.799 182.455L282.846 181.824L285.215 181.97Z" fill="white"/>
<path d="M291.941 188.756L291.894 189.386L286.992 189.032V188.532L290.11 185.932C290.951 185.225 291.138 184.771 291.17 184.294C291.232 183.525 290.702 182.963 289.611 182.886C289.257 182.839 288.896 182.872 288.556 182.981C288.216 183.09 287.905 183.273 287.647 183.517L287.164 183.048C287.504 182.741 287.91 182.514 288.35 182.381C288.791 182.248 289.256 182.213 289.712 182.278C291.131 182.378 291.98 183.155 291.894 184.309C291.848 184.971 291.591 185.548 290.585 186.386L288.037 188.517L291.941 188.756Z" fill="white"/>
<path d="M299.384 188.102L297.989 188.002L297.857 189.817L297.116 189.756L297.249 187.948L293.305 187.663L293.344 187.148L297.381 182.84L298.16 182.901L294.264 187.094L297.295 187.317L297.412 185.717L298.114 185.771L297.997 187.363L299.454 187.448L299.384 188.102Z" fill="white"/>
<path d="M310.101 188.87L308.706 188.77L308.573 190.586L307.848 190.532L307.989 188.724L304.037 188.44L304.076 187.924L308.121 183.616L308.9 183.678L305.004 187.878L308.035 188.093L308.152 186.493L308.854 186.547L308.737 188.14L310.132 188.24L310.101 188.87Z" fill="white"/>
<path d="M316.235 189.094C316.141 190.271 315.245 191.125 313.538 191.002C312.617 190.968 311.745 190.588 311.098 189.94L311.488 189.402C312.033 189.975 312.782 190.317 313.577 190.356C314.769 190.44 315.44 189.91 315.502 189.071C315.564 188.233 315.05 187.594 313.273 187.463L311.784 187.363L312.392 183.925L316.219 184.202L316.172 184.833L312.977 184.602L312.579 186.786L313.475 186.848C315.58 187.002 316.32 187.879 316.235 189.094Z" fill="white"/>
<path d="M323.148 189.563C323.122 189.861 323.034 190.15 322.889 190.413C322.744 190.675 322.545 190.905 322.306 191.088C322.066 191.271 321.791 191.403 321.497 191.475C321.204 191.548 320.898 191.56 320.599 191.51C318.744 191.379 317.825 190.033 317.988 187.855C318.16 185.548 319.547 184.378 321.449 184.517C322.026 184.536 322.588 184.706 323.078 185.009L322.75 185.563C322.354 185.298 321.889 185.151 321.41 185.14C319.906 185.032 318.861 185.909 318.729 187.794C318.729 187.948 318.729 188.148 318.729 188.356C318.957 187.987 319.291 187.693 319.687 187.51C320.083 187.327 320.525 187.263 320.958 187.325C321.255 187.315 321.55 187.368 321.825 187.478C322.1 187.588 322.349 187.754 322.555 187.965C322.762 188.176 322.921 188.427 323.023 188.702C323.125 188.977 323.168 189.271 323.148 189.563ZM322.431 189.563C322.501 188.656 321.862 188.025 320.786 187.948C320.569 187.907 320.345 187.911 320.128 187.959C319.912 188.008 319.708 188.099 319.529 188.228C319.351 188.357 319.2 188.521 319.088 188.71C318.976 188.898 318.904 189.108 318.877 189.325C318.822 190.094 319.407 190.863 320.615 190.94C320.829 190.976 321.049 190.967 321.26 190.915C321.47 190.862 321.668 190.766 321.839 190.633C322.01 190.501 322.151 190.334 322.253 190.145C322.355 189.955 322.415 189.747 322.431 189.532V189.563Z" fill="white"/>
<path d="M332.703 190.332C332.618 191.486 331.706 192.309 330.022 192.186C329.097 192.153 328.219 191.774 327.567 191.124L327.957 190.586C328.51 191.161 329.267 191.502 330.069 191.54C331.222 191.624 331.901 191.132 331.963 190.278C332.025 189.424 331.48 188.863 330.178 188.74H329.679L329.718 188.217L331.83 185.955L328.261 185.701L328.308 185.07L332.797 185.393V185.893L330.63 188.217C332.095 188.394 332.789 189.224 332.703 190.332Z" fill="white"/>
<path d="M339.725 190.755C339.699 191.053 339.611 191.343 339.466 191.605C339.321 191.867 339.123 192.097 338.883 192.28C338.644 192.463 338.368 192.595 338.075 192.668C337.781 192.74 337.475 192.752 337.176 192.702C335.321 192.571 334.41 191.225 334.565 189.048C334.737 186.701 336.124 185.571 338.026 185.709C338.604 185.725 339.167 185.895 339.655 186.201L339.327 186.755C338.931 186.49 338.466 186.343 337.987 186.332C336.483 186.224 335.446 187.101 335.306 188.978C335.306 189.14 335.306 189.34 335.306 189.548C335.535 189.18 335.868 188.886 336.264 188.702C336.66 188.519 337.102 188.455 337.535 188.517C337.832 188.508 338.127 188.56 338.402 188.67C338.678 188.78 338.926 188.946 339.133 189.157C339.339 189.368 339.498 189.619 339.6 189.894C339.702 190.17 339.745 190.463 339.725 190.755ZM339.008 190.755C339.078 189.848 338.439 189.217 337.363 189.14C337.146 189.099 336.922 189.103 336.706 189.152C336.489 189.2 336.286 189.291 336.107 189.42C335.928 189.549 335.777 189.713 335.665 189.902C335.553 190.091 335.481 190.3 335.454 190.517C335.399 191.286 335.984 192.056 337.192 192.132C337.406 192.168 337.626 192.16 337.837 192.107C338.048 192.054 338.245 191.958 338.416 191.826C338.587 191.693 338.728 191.527 338.83 191.337C338.932 191.147 338.993 190.939 339.008 190.725V190.755Z" fill="white"/>
<path d="M346.514 186.378V186.878L343.1 193.071L342.32 193.009L345.656 186.947L342.063 186.693L341.97 187.986L341.26 187.932L341.401 186.009L346.514 186.378Z" fill="white"/>
<path d="M356.505 187.102L356.466 187.602L353.068 193.756L352.289 193.702L355.632 187.64L352.039 187.379L351.938 188.671L351.229 188.617L351.377 186.694L356.505 187.102Z" fill="white"/>
<path d="M363.021 192.571C362.928 193.794 361.829 194.479 360.161 194.356C358.493 194.233 357.519 193.402 357.604 192.179C357.629 191.787 357.789 191.415 358.057 191.124C358.324 190.833 358.684 190.641 359.077 190.579C358.76 190.456 358.492 190.234 358.314 189.946C358.137 189.658 358.06 189.321 358.095 188.986C358.173 187.863 359.194 187.232 360.675 187.34C362.156 187.448 363.091 188.217 363.013 189.34C362.998 189.681 362.869 190.007 362.647 190.267C362.424 190.527 362.12 190.707 361.782 190.779C362.164 190.894 362.494 191.135 362.72 191.461C362.945 191.786 363.051 192.178 363.021 192.571ZM362.281 192.509C362.343 191.656 361.642 191.071 360.402 190.971C359.163 190.871 358.399 191.363 358.337 192.209C358.275 193.056 358.96 193.648 360.2 193.748C361.439 193.848 362.218 193.363 362.281 192.509ZM360.449 190.425C361.532 190.502 362.218 190.063 362.281 189.317C362.343 188.571 361.681 188.017 360.628 187.94C359.576 187.863 358.867 188.286 358.812 189.055C358.758 189.825 359.358 190.348 360.449 190.425Z" fill="white"/>
<path d="M369.926 191.471C369.755 193.778 368.368 194.948 366.466 194.809C365.889 194.789 365.327 194.619 364.837 194.317L365.172 193.763C365.566 194.028 366.028 194.175 366.505 194.186C368.009 194.294 369.053 193.417 369.194 191.54C369.194 191.378 369.194 191.178 369.194 190.971C368.966 191.338 368.635 191.632 368.24 191.815C367.845 191.998 367.404 192.063 366.972 192.001C366.674 192.014 366.376 191.964 366.099 191.856C365.821 191.747 365.57 191.581 365.362 191.37C365.153 191.158 364.993 190.906 364.89 190.629C364.788 190.352 364.746 190.057 364.767 189.763C364.792 189.465 364.879 189.176 365.023 188.914C365.167 188.651 365.365 188.421 365.604 188.238C365.843 188.055 366.117 187.923 366.411 187.851C366.704 187.778 367.009 187.767 367.308 187.817C369.17 187.947 370.09 189.294 369.926 191.471ZM369.038 190.032C369.1 189.263 368.508 188.494 367.3 188.417C367.088 188.381 366.871 188.389 366.662 188.44C366.453 188.491 366.257 188.584 366.087 188.713C365.916 188.842 365.774 189.005 365.671 189.191C365.567 189.377 365.503 189.582 365.484 189.794C365.414 190.701 366.053 191.332 367.128 191.409C367.346 191.45 367.57 191.446 367.786 191.397C368.002 191.349 368.206 191.258 368.385 191.129C368.564 191 368.714 190.836 368.827 190.647C368.939 190.459 369.011 190.249 369.038 190.032Z" fill="white"/>
<path d="M377.268 188.586L376.762 195.509L376.037 195.456L376.504 189.186L374.852 189.063L374.899 188.432L377.268 188.586Z" fill="white"/>
<path d="M383.994 195.378L383.947 196.009L379.045 195.655V195.147L382.162 192.547C383.012 191.84 383.191 191.386 383.23 190.916C383.293 190.147 382.755 189.578 381.671 189.501C381.317 189.456 380.957 189.49 380.618 189.599C380.278 189.708 379.967 189.89 379.707 190.132L379.232 189.663C379.569 189.35 379.973 189.115 380.414 188.975C380.855 188.835 381.322 188.794 381.781 188.855C383.199 188.963 384.041 189.732 383.963 190.886C383.913 191.306 383.77 191.71 383.544 192.069C383.317 192.428 383.013 192.733 382.653 192.963L380.152 195.14L383.994 195.378Z" fill="white"/>
<path d="M390.37 194.478C390.284 195.632 389.364 196.455 387.681 196.332C386.754 196.3 385.875 195.917 385.226 195.263L385.623 194.732C386.174 195.305 386.928 195.646 387.727 195.686C388.889 195.763 389.567 195.278 389.629 194.424C389.691 193.57 389.138 193.009 387.844 192.886L387.346 192.847L387.384 192.332L389.497 190.07L385.919 189.816L385.966 189.186L390.463 189.509V190.009L388.304 192.316C389.754 192.54 390.447 193.37 390.37 194.478Z" fill="white"/>
<path d="M336.09 197.7L335.869 200.7L391.875 204.72L392.096 201.72L336.09 197.7Z" fill="white"/>
<path d="M362.93 205.643L362.709 208.643L391.431 210.705L391.652 207.705L362.93 205.643Z" fill="white"/>
<g opacity="0.5">
<path d="M302.256 159.826L286.469 158.687C284.34 158.533 282.488 160.112 282.333 162.214L281.617 171.927C281.463 174.029 283.063 175.858 285.193 176.011L300.98 177.15C303.109 177.304 304.961 175.724 305.115 173.623L305.831 163.909C305.986 161.808 304.385 159.979 302.256 159.826Z" fill="black"/>
</g>
<path d="M281.7 170.923L281.786 169.815L293.889 170.685C294.549 170.712 295.194 170.484 295.687 170.05C296.18 169.616 296.482 169.01 296.53 168.36C296.577 167.71 296.366 167.067 295.942 166.567C295.518 166.068 294.913 165.751 294.256 165.684L282.152 164.815L282.238 163.7L294.334 164.569C294.826 164.588 295.309 164.704 295.755 164.911C296.201 165.118 296.6 165.411 296.928 165.773C297.257 166.135 297.508 166.559 297.667 167.019C297.826 167.479 297.89 167.966 297.854 168.451C297.819 168.936 297.684 169.409 297.46 169.842C297.235 170.274 296.925 170.658 296.547 170.97C296.169 171.281 295.731 171.515 295.26 171.656C294.789 171.798 294.294 171.844 293.804 171.792L281.7 170.923Z" fill="#CD5954"/>
<path d="M297.21 167.843L297.127 168.956L305.428 169.56L305.511 168.448L297.21 167.843Z" fill="#CD5954"/>
<path d="M346.89 148.694L286.454 144.345L286.076 149.462L346.512 153.811L346.89 148.694Z" fill="white"/>
<path d="M194.768 76.657V0.345703L200.068 4.56898L204.393 0.345703L208.976 4.06896L213.302 0.345703L217.635 4.32282L222.849 0.345703L226.668 4.06896L230.869 0.345703L235.07 4.4459L240.159 0.345703L244.492 4.32282L249.075 0.345703L253.907 4.4459L258.233 0.345703L262.434 3.94587L267.017 0.345703L271.857 3.94587L276.057 0.345703V76.657H194.768Z" fill="#FAFAFA"/>
<path d="M194.768 76.6729H196.272H200.613L217.082 76.6267L276.057 76.5421L275.886 76.7113C275.886 54.5564 275.886 28.4475 275.886 0.400016L276.221 0.55387L272.02 4.14635L271.896 4.25405L271.763 4.16174L266.892 0.515408H267.141L265.793 1.5693L262.559 4.10788L262.426 4.21558L262.301 4.10019L258.1 0.515408H258.373L254.048 4.6156L253.915 4.73869L253.775 4.6233L248.943 0.515408H249.208L244.625 4.48483L244.485 4.60022L244.352 4.48483L240.027 0.515408H240.284L235.194 4.6156L235.054 4.7233L234.929 4.60022C233.519 3.22323 232.124 1.85393 230.729 0.500022H231.001L226.8 4.22328L226.66 4.33867L226.535 4.21558C225.268 2.94886 223.995 1.71546 222.716 0.515408H222.966L217.744 4.48483L217.619 4.57714L217.502 4.46944C216.037 3.12322 214.603 1.80008 213.177 0.500022H213.426L209.101 4.22328L208.984 4.32328L208.859 4.22328L204.284 0.515408H204.518C203.037 1.96932 201.603 3.3617 200.192 4.73869L200.075 4.84638L199.958 4.75407L194.659 0.523099L194.939 0.392325C194.939 23.378 194.869 42.4328 194.846 55.7796C194.846 62.4491 194.846 67.6724 194.846 71.2495C194.846 73.0266 194.846 74.3958 194.846 75.3267C194.846 76.2575 194.846 76.7344 194.846 76.7344C194.846 76.7344 194.846 76.2729 194.846 75.3574C194.846 74.442 194.846 73.0496 194.846 71.3188C194.846 67.7494 194.846 62.5337 194.799 55.8873C194.799 42.5405 194.752 23.4473 194.713 0.423096V0.0769256L194.994 0.29232L200.294 4.5156H200.06L204.385 0.29232L204.502 0.176931L204.627 0.284628L209.21 4.00019H208.976L213.302 0.276934L213.426 0.169237L213.551 0.284628L217.876 4.25405H217.635L222.849 0.276934L222.981 0.176931L223.106 0.29232L226.925 4.00788H226.66L230.853 0.284628L230.994 0.161545L231.126 0.284628L235.327 4.38482H235.062L240.151 0.284628L240.284 0.176931L240.416 0.300014L244.742 4.26943H244.477L249.052 0.300014L249.184 0.184623L249.317 0.300014L254.157 4.39252H253.884L258.21 0.29232L258.342 0.169237L258.482 0.29232C259.877 1.47699 261.273 2.67705 262.683 3.8848H262.426L265.66 1.34622L267.009 0.29232L267.133 0.192317L267.258 0.284628L272.09 3.8848H271.841L276.042 0.29232L276.377 0V0.438482C276.377 28.486 276.377 54.5949 276.377 76.7498V76.9191H276.073L216.988 76.8344L200.543 76.6729H196.233C195.259 76.6729 194.768 76.6729 194.768 76.6729Z" fill="#263238"/>
<path d="M237.057 31.2869C237.057 31.4023 229.474 31.4946 220.129 31.4946C210.784 31.4946 203.208 31.4023 203.208 31.2869C203.208 31.1715 210.784 31.0869 220.129 31.0869C229.474 31.0869 237.057 31.21 237.057 31.2869Z" fill="#263238"/>
<path d="M237.057 40.0252C237.057 40.1406 229.474 40.2252 220.129 40.2252C210.784 40.2252 203.208 40.1406 203.208 40.0252C203.208 39.9098 210.784 39.8252 220.129 39.8252C229.474 39.8252 237.057 39.9175 237.057 40.0252Z" fill="#263238"/>
<path d="M237.057 48.7332C237.057 48.8409 229.474 48.9332 220.129 48.9332C210.784 48.9332 203.208 48.8409 203.208 48.7332C203.208 48.6255 210.784 48.5332 220.129 48.5332C229.474 48.5332 237.057 48.6255 237.057 48.7332Z" fill="#263238"/>
<path d="M237.057 57.4407C237.057 57.5484 229.474 57.6407 220.129 57.6407C210.784 57.6407 203.208 57.5484 203.208 57.4407C203.208 57.333 210.784 57.2407 220.129 57.2407C229.474 57.2407 237.057 57.3253 237.057 57.4407Z" fill="#263238"/>
<path d="M264.959 31.1399C261.067 31.4059 257.161 31.4059 253.269 31.1399C257.161 30.8739 261.067 30.8739 264.959 31.1399Z" fill="#263238"/>
<path d="M264.959 40.0252C261.067 40.2911 257.161 40.2911 253.269 40.0252C257.161 39.7592 261.067 39.7592 264.959 40.0252Z" fill="#263238"/>
<path d="M264.959 48.9099C261.067 49.1759 257.161 49.1759 253.269 48.9099C257.161 48.644 261.067 48.644 264.959 48.9099Z" fill="#263238"/>
<path d="M264.959 57.7952C261.067 58.0612 257.161 58.0612 253.269 57.7952C257.161 57.5292 261.067 57.5292 264.959 57.7952Z" fill="#263238"/>
<path d="M194.822 66.4034V63.9879L275.87 60.3569V66.7726L194.822 66.4034Z" fill="#EBEBEB"/>
<path d="M276.666 320L189.749 319.607C187.263 319.596 184.803 319.102 182.511 318.153C180.218 317.203 178.137 315.818 176.387 314.075C174.637 312.332 173.252 310.266 172.311 307.994C171.37 305.723 170.892 303.291 170.903 300.837L171.823 85.7577C171.834 83.3029 172.335 80.8742 173.297 78.6105C174.26 76.3468 175.664 74.2923 177.431 72.5643C179.197 70.8364 181.291 69.4688 183.593 68.5396C185.896 67.6105 188.361 67.138 190.848 67.1491L277.764 67.5491C282.784 67.5715 287.589 69.5606 291.123 73.0791C294.657 76.5975 296.631 81.3572 296.61 86.3116L295.69 301.391C295.68 303.846 295.18 306.275 294.218 308.539C293.256 310.804 291.852 312.858 290.085 314.587C288.318 316.315 286.223 317.682 283.921 318.611C281.618 319.54 279.153 320.012 276.666 320Z" fill="#263238"/>
<path d="M277.632 74.9733L260.782 74.8964C260.232 74.9054 259.69 75.0212 259.185 75.2372C258.681 75.4532 258.225 75.7651 257.843 76.1551C257.46 76.5452 257.16 77.0057 256.958 77.5104C256.756 78.0151 256.657 78.5541 256.667 79.0966V82.1121C256.685 83.2085 256.263 84.2674 255.491 85.0563C254.719 85.8453 253.662 86.2998 252.551 86.32L219.708 86.1662C218.599 86.1359 217.547 85.6728 216.783 84.8783C216.019 84.0837 215.605 83.0226 215.632 81.9275V78.912C215.659 77.8161 215.246 76.7541 214.482 75.9584C213.718 75.1626 212.666 74.6978 211.556 74.6656H205.625L190.879 74.5964C189.137 74.5873 187.41 74.9173 185.798 75.5675C184.185 76.2177 182.718 77.1755 181.481 78.3858C180.244 79.5962 179.261 81.0355 178.588 82.6214C177.915 84.2072 177.565 85.9084 177.559 87.6278L176.655 297.561C176.649 299.279 176.986 300.982 177.647 302.572C178.308 304.162 179.281 305.608 180.508 306.827C181.736 308.046 183.195 309.014 184.802 309.676C186.409 310.338 188.132 310.68 189.873 310.685L276.619 311.077C278.361 311.086 280.087 310.756 281.7 310.106C283.312 309.455 284.779 308.498 286.016 307.287C287.254 306.077 288.237 304.638 288.91 303.052C289.583 301.466 289.932 299.765 289.938 298.045L290.881 88.1124C290.89 86.3899 290.553 84.6827 289.891 83.0889C289.229 81.4952 288.254 80.0463 287.023 78.8254C285.792 77.6045 284.328 76.6357 282.717 75.9746C281.105 75.3136 279.377 74.9733 277.632 74.9733Z" fill="#FAFAFA"/>
<path d="M228.531 290.983C228.582 291.343 228.52 291.711 228.353 292.035C228.187 292.36 227.924 292.626 227.6 292.799C227.276 292.972 226.906 293.043 226.539 293.003C226.173 292.963 225.828 292.813 225.55 292.574C225.273 292.334 225.076 292.017 224.986 291.664C224.896 291.311 224.918 290.94 225.048 290.6C225.178 290.259 225.41 289.966 225.714 289.76C226.017 289.553 226.377 289.443 226.746 289.445C227.189 289.415 227.626 289.561 227.961 289.849C228.296 290.138 228.501 290.546 228.531 290.983Z" fill="#455A64"/>
<path d="M234.096 291.006C234.148 291.368 234.087 291.738 233.921 292.065C233.754 292.392 233.49 292.66 233.165 292.835C232.839 293.01 232.467 293.082 232.098 293.042C231.73 293.001 231.383 292.851 231.103 292.61C230.824 292.369 230.626 292.05 230.536 291.695C230.446 291.34 230.468 290.966 230.6 290.624C230.731 290.282 230.966 289.988 231.272 289.781C231.577 289.574 231.94 289.465 232.311 289.468C232.754 289.438 233.191 289.584 233.526 289.872C233.861 290.161 234.066 290.569 234.096 291.006Z" fill="#455A64"/>
<path d="M239.637 291.029C239.687 291.39 239.626 291.757 239.459 292.081C239.293 292.406 239.03 292.673 238.706 292.846C238.382 293.019 238.011 293.09 237.645 293.049C237.279 293.009 236.934 292.859 236.656 292.62C236.379 292.38 236.182 292.063 236.092 291.71C236.002 291.358 236.024 290.986 236.154 290.646C236.284 290.305 236.516 290.012 236.82 289.806C237.123 289.6 237.483 289.49 237.852 289.491C238.072 289.475 238.292 289.503 238.501 289.572C238.71 289.641 238.903 289.75 239.069 289.893C239.235 290.036 239.371 290.21 239.468 290.405C239.566 290.6 239.623 290.812 239.637 291.029Z" fill="#455A64"/>
<path d="M269.23 116.037H198.22C194.45 116.037 191.393 119.054 191.393 122.775V195.517C191.393 199.239 194.45 202.256 198.22 202.256H269.23C273.001 202.256 276.057 199.239 276.057 195.517V122.775C276.057 119.054 273.001 116.037 269.23 116.037Z" fill="#455A64"/>
<path d="M269.23 202.641H198.212C196.3 202.639 194.466 201.887 193.114 200.551C191.762 199.216 191.003 197.405 191.003 195.517V122.775C191.003 120.887 191.762 119.077 193.114 117.741C194.466 116.405 196.3 115.654 198.212 115.652H269.23C271.143 115.654 272.978 116.405 274.331 117.741C275.684 119.076 276.445 120.887 276.447 122.775V195.517C276.445 197.406 275.684 199.216 274.331 200.552C272.978 201.887 271.143 202.639 269.23 202.641ZM198.212 116.421C196.506 116.423 194.871 117.094 193.665 118.285C192.46 119.476 191.783 121.091 191.783 122.775V195.517C191.783 197.201 192.46 198.816 193.665 200.008C194.871 201.199 196.506 201.869 198.212 201.871H269.23C270.937 201.869 272.573 201.199 273.78 200.008C274.987 198.817 275.665 197.202 275.668 195.517V122.775C275.665 121.091 274.987 119.476 273.78 118.284C272.573 117.093 270.937 116.423 269.23 116.421H198.212Z" fill="#455A64"/>
<path d="M254.37 214.594V225.88H251.984V216.859H251.918L249.333 218.479V216.363L252.127 214.594H254.37ZM253.885 245.128C252.937 245.125 252.122 244.891 251.438 244.428C250.759 243.966 250.235 243.295 249.868 242.417C249.504 241.539 249.324 240.483 249.328 239.248C249.328 238.017 249.51 236.968 249.873 236.101C250.241 235.234 250.764 234.575 251.444 234.123C252.127 233.667 252.941 233.44 253.885 233.44C254.829 233.44 255.641 233.667 256.321 234.123C257.004 234.579 257.53 235.24 257.897 236.107C258.265 236.97 258.447 238.017 258.443 239.248C258.443 240.486 258.259 241.544 257.892 242.422C257.528 243.301 257.006 243.971 256.327 244.434C255.647 244.897 254.833 245.128 253.885 245.128ZM253.885 243.15C254.532 243.15 255.048 242.825 255.434 242.174C255.82 241.524 256.011 240.549 256.007 239.248C256.007 238.392 255.919 237.679 255.742 237.11C255.57 236.54 255.324 236.112 255.004 235.826C254.688 235.539 254.315 235.396 253.885 235.396C253.242 235.396 252.728 235.717 252.342 236.36C251.956 237.003 251.762 237.966 251.758 239.248C251.758 240.115 251.844 240.839 252.017 241.419C252.193 241.996 252.441 242.43 252.761 242.72C253.081 243.007 253.455 243.15 253.885 243.15Z" fill="black"/>
<path d="M265.511 214.554C265.748 214.554 265.975 214.594 266.193 214.673C266.413 214.752 266.608 214.879 266.78 215.052C266.953 215.225 267.09 215.456 267.19 215.743C267.292 216.028 267.344 216.378 267.345 216.794C267.345 217.184 267.301 217.532 267.213 217.838C267.126 218.143 267.001 218.403 266.838 218.616C266.676 218.83 266.479 218.993 266.249 219.105C266.019 219.215 265.762 219.271 265.478 219.271C265.171 219.271 264.901 219.212 264.666 219.094C264.432 218.974 264.243 218.812 264.099 218.607C263.957 218.401 263.871 218.169 263.841 217.912H264.799C264.836 218.08 264.914 218.21 265.034 218.302C265.153 218.394 265.301 218.439 265.478 218.439C265.777 218.439 266.004 218.309 266.159 218.049C266.315 217.788 266.393 217.43 266.395 216.975H266.363C266.294 217.11 266.202 217.226 266.085 217.323C265.969 217.418 265.835 217.492 265.684 217.545C265.535 217.597 265.375 217.623 265.207 217.623C264.936 217.623 264.695 217.56 264.483 217.433C264.27 217.306 264.103 217.131 263.98 216.908C263.858 216.685 263.797 216.431 263.797 216.146C263.795 215.838 263.866 215.564 264.01 215.323C264.153 215.083 264.353 214.894 264.61 214.758C264.869 214.621 265.169 214.553 265.511 214.554ZM265.518 215.317C265.367 215.317 265.233 215.352 265.115 215.424C264.998 215.496 264.905 215.592 264.837 215.713C264.769 215.834 264.737 215.97 264.738 216.119C264.738 216.27 264.771 216.406 264.837 216.527C264.904 216.647 264.995 216.742 265.11 216.814C265.227 216.884 265.36 216.919 265.509 216.919C265.621 216.919 265.725 216.898 265.821 216.857C265.916 216.815 265.999 216.757 266.07 216.684C266.141 216.609 266.197 216.523 266.238 216.426C266.278 216.329 266.298 216.226 266.298 216.117C266.297 215.972 266.262 215.839 266.195 215.718C266.128 215.597 266.035 215.5 265.917 215.426C265.799 215.353 265.666 215.317 265.518 215.317ZM265.511 222.554C265.748 222.554 265.975 222.594 266.193 222.673C266.413 222.752 266.608 222.879 266.78 223.052C266.953 223.225 267.09 223.456 267.19 223.743C267.292 224.028 267.344 224.378 267.345 224.794C267.345 225.184 267.301 225.532 267.213 225.838C267.126 226.143 267.001 226.403 266.838 226.616C266.676 226.83 266.479 226.993 266.249 227.105C266.019 227.215 265.762 227.271 265.478 227.271C265.171 227.271 264.901 227.212 264.666 227.094C264.432 226.974 264.243 226.812 264.099 226.607C263.957 226.401 263.871 226.169 263.841 225.912H264.799C264.836 226.08 264.914 226.21 265.034 226.302C265.153 226.394 265.301 226.439 265.478 226.439C265.777 226.439 266.004 226.309 266.159 226.049C266.315 225.788 266.393 225.43 266.395 224.975H266.363C266.294 225.11 266.202 225.226 266.085 225.323C265.969 225.418 265.835 225.492 265.684 225.545C265.535 225.597 265.375 225.623 265.207 225.623C264.936 225.623 264.695 225.56 264.483 225.433C264.27 225.306 264.103 225.131 263.98 224.908C263.858 224.685 263.797 224.431 263.797 224.146C263.795 223.838 263.866 223.564 264.01 223.323C264.153 223.083 264.353 222.894 264.61 222.758C264.869 222.621 265.169 222.553 265.511 222.554ZM265.518 223.317C265.367 223.317 265.233 223.352 265.115 223.424C264.998 223.496 264.905 223.592 264.837 223.713C264.769 223.834 264.737 223.97 264.738 224.119C264.738 224.27 264.771 224.406 264.837 224.527C264.904 224.647 264.995 224.742 265.11 224.814C265.227 224.884 265.36 224.919 265.509 224.919C265.621 224.919 265.725 224.898 265.821 224.857C265.916 224.815 265.999 224.757 266.07 224.684C266.141 224.609 266.197 224.523 266.238 224.426C266.278 224.329 266.298 224.226 266.298 224.117C266.297 223.972 266.262 223.839 266.195 223.718C266.128 223.597 266.035 223.5 265.917 223.426C265.799 223.353 265.666 223.317 265.518 223.317Z" fill="#263238"/>
<path d="M269.526 219.287H263.478V220.041H269.526V219.287Z" fill="#263238"/>
<path d="M227.681 216.91H196.467V217.864H227.681V216.91Z" fill="#263238"/>
<path d="M215.414 219.964H196.467V220.918H215.414V219.964Z" fill="#263238"/>
<path d="M263.603 264.582L201.252 264.297C200.605 264.297 200.091 263.597 200.091 262.759L200.161 246.65C200.161 245.796 200.691 245.112 201.338 245.112L263.735 245.396C264.382 245.396 264.905 246.089 264.897 246.935L264.834 263.051C264.795 263.897 264.265 264.582 263.603 264.582Z" fill="#CD5954"/>
<g opacity="0.5">
<path d="M263.603 264.582L201.252 264.297C200.605 264.297 200.091 263.597 200.091 262.759L200.161 246.65C200.161 245.796 200.691 245.112 201.338 245.112L263.735 245.396C264.382 245.396 264.905 246.089 264.897 246.935L264.834 263.051C264.795 263.897 264.265 264.582 263.603 264.582Z" fill="black"/>
</g>
<path d="M263.603 259.42L201.252 259.136C200.605 259.136 200.091 258.436 200.091 257.597L200.161 241.489C200.161 240.635 200.691 239.95 201.338 239.95L263.735 240.235C264.092 240.295 264.411 240.489 264.627 240.775C264.844 241.062 264.94 241.419 264.897 241.773L264.834 257.89C264.795 258.728 264.265 259.42 263.603 259.42Z" fill="#CD5954"/>
<path d="M229.645 248.512C229.645 249.543 228.913 250.158 227.72 250.151H226.465V251.689H225.974V246.866H227.751C228.928 246.858 229.645 247.45 229.645 248.512ZM229.146 248.512C229.146 247.743 228.655 247.297 227.72 247.289H226.481V249.697H227.751C228.648 249.704 229.146 249.266 229.146 248.512Z" fill="white"/>
<path d="M233.402 250.412H230.799L230.23 251.704H229.715L231.874 246.896H232.365L234.477 251.727H233.986L233.402 250.412ZM233.223 249.997L232.116 247.404L230.978 249.989L233.223 249.997Z" fill="white"/>
<path d="M236.59 250.05V251.712H236.106V250.043L234.244 246.881H234.766L236.364 249.597L237.977 246.896H238.468L236.59 250.05Z" fill="white"/>
<path d="M246.854 173.038C246.672 173.072 246.486 173.085 246.301 173.077L244.742 173.115L238.897 173.177L219.287 173.238H219.116V173.069C218.968 172.046 218.812 170.961 218.656 169.861C217.323 160.453 216.17 152.053 215.445 146.614L215.57 146.73L210.348 146.668H208.961C208.8 146.684 208.638 146.684 208.477 146.668C208.638 146.655 208.8 146.655 208.961 146.668L210.348 146.63L215.57 146.576H215.679V146.691C216.458 152.114 217.713 160.538 219.046 169.915C219.202 171.015 219.35 172.1 219.498 173.123L219.295 172.946L238.904 173.015L244.75 173.077H246.309C246.489 173.053 246.672 173.04 246.854 173.038Z" fill="white"/>
<path d="M218.477 167.4H219.022H220.581L226.481 167.346L246.839 167.27L246.644 167.431C247.244 164.054 247.898 160.392 248.577 156.608C248.919 154.661 249.262 152.761 249.59 150.93L249.792 151.161L225.803 151.092L218.703 151.038L216.786 151H216.295H216.123H216.295H216.786H218.703L225.803 150.938L249.792 150.876H250.026L249.987 151.107C249.66 152.93 249.317 154.838 248.974 156.784C248.296 160.569 247.634 164.223 247.026 167.608V167.762H246.862L226.504 167.693L220.604 167.639H219.046C218.848 167.579 218.658 167.499 218.477 167.4Z" fill="white"/>
<path d="M226.192 180.432C226.153 180.432 226.153 180.185 226.029 179.785C225.854 179.22 225.499 178.726 225.016 178.378C224.631 178.095 224.174 177.924 223.696 177.883C223.218 177.842 222.738 177.933 222.31 178.146C221.882 178.359 221.521 178.685 221.27 179.088C221.018 179.49 220.885 179.954 220.885 180.428C220.885 180.901 221.018 181.365 221.27 181.768C221.521 182.171 221.882 182.497 222.31 182.709C222.738 182.922 223.218 183.013 223.696 182.972C224.174 182.931 224.631 182.76 225.016 182.478C225.498 182.131 225.853 181.64 226.029 181.078C226.153 180.67 226.153 180.432 226.192 180.432C226.25 180.656 226.25 180.892 226.192 181.116C226.061 181.747 225.708 182.311 225.195 182.709C224.811 183.008 224.357 183.207 223.875 183.287C223.392 183.366 222.897 183.323 222.436 183.162C221.865 182.961 221.372 182.591 221.023 182.102C220.674 181.613 220.487 181.03 220.487 180.432C220.487 179.834 220.674 179.25 221.023 178.761C221.372 178.272 221.865 177.902 222.436 177.701C222.897 177.54 223.392 177.497 223.875 177.576C224.357 177.656 224.811 177.855 225.195 178.155C225.709 178.554 226.063 179.121 226.192 179.755C226.249 179.977 226.249 180.209 226.192 180.432Z" fill="white"/>
<path d="M243.916 180.432C243.877 180.432 243.877 180.185 243.752 179.785C243.58 179.219 243.224 178.724 242.739 178.378C242.354 178.095 241.897 177.924 241.419 177.883C240.941 177.842 240.462 177.933 240.033 178.146C239.605 178.359 239.245 178.685 238.993 179.088C238.741 179.49 238.608 179.954 238.608 180.428C238.608 180.901 238.741 181.365 238.993 181.768C239.245 182.171 239.605 182.497 240.033 182.709C240.462 182.922 240.941 183.013 241.419 182.972C241.897 182.931 242.354 182.76 242.739 182.478C243.223 182.134 243.579 181.642 243.752 181.078C243.877 180.67 243.877 180.432 243.916 180.432C243.974 180.656 243.974 180.892 243.916 181.116C243.784 181.747 243.431 182.311 242.918 182.709C242.535 183.008 242.08 183.207 241.598 183.287C241.115 183.366 240.62 183.323 240.159 183.162C239.588 182.961 239.095 182.591 238.746 182.102C238.397 181.613 238.21 181.03 238.21 180.432C238.21 179.834 238.397 179.25 238.746 178.761C239.095 178.272 239.588 177.902 240.159 177.701C240.62 177.54 241.115 177.497 241.598 177.576C242.08 177.656 242.535 177.855 242.918 178.155C243.431 178.552 243.784 179.116 243.916 179.747C243.973 179.972 243.973 180.207 243.916 180.432Z" fill="white"/>
<path d="M248.296 155.915C252.643 155.915 256.168 152.437 256.168 148.146C256.168 143.855 252.643 140.376 248.296 140.376C243.948 140.376 240.424 143.855 240.424 148.146C240.424 152.437 243.948 155.915 248.296 155.915Z" fill="#CD5954"/>
<path d="M252.24 146.107C251.118 147.56 249.894 148.933 248.577 150.215L247.446 151.376L247.322 151.515L247.181 151.392C246.163 150.583 245.219 149.687 244.36 148.715C245.449 149.43 246.479 150.23 247.439 151.107H247.166C247.524 150.738 247.899 150.338 248.28 149.93C249.502 148.561 250.826 147.283 252.24 146.107Z" fill="#263238"/>
<path d="M166.835 89.751C166.734 90.0202 164.372 111.375 164.372 111.375L173.499 109.752L175.837 92.1049L166.835 89.751Z" fill="#455A64"/>
<path d="M164.372 111.367L163.686 110.967L165.759 89.4502L166.804 89.7425L164.372 111.367Z" fill="#263238"/>
<path d="M171.199 93.4426C171.432 93.4426 171.62 93.2566 171.62 93.0272C171.62 92.7978 171.432 92.6118 171.199 92.6118C170.967 92.6118 170.778 92.7978 170.778 93.0272C170.778 93.2566 170.967 93.4426 171.199 93.4426Z" fill="#263238"/>
<path d="M158.893 122.883L176.398 127.376L173.725 105.905L173.366 104.928L166.96 103.951L167.739 99.2742C167.839 98.7597 168.045 98.2709 168.344 97.8377C168.643 97.4046 169.028 97.0363 169.476 96.7553C169.924 96.4744 170.426 96.2868 170.95 96.2041C171.474 96.1213 172.01 96.1451 172.524 96.274L174.629 96.8279C175.37 97.0205 176.063 97.3654 176.66 97.8399C177.258 98.3144 177.747 98.908 178.097 99.5819C179.313 101.936 180.505 104.505 180.388 104.282L189.78 129.422C190.598 131.034 190.934 132.843 190.749 134.637C190.564 136.431 189.866 138.136 188.736 139.553C185.712 143.399 178.409 140.73 174.964 140.076L152.541 135.199L158.893 122.883Z" fill="#C67761"/>
<path d="M92.435 160.177C90.5318 158.014 89.4883 155.243 89.4984 152.378C89.5084 149.513 90.5712 146.749 92.4896 144.599L111.623 123.175L116.744 137.314C116.393 137.545 101.842 152.938 101.842 152.938L114.312 168.324C115.26 169.489 115.892 170.871 116.151 172.343C116.41 173.815 116.287 175.327 115.793 176.739L115.232 179.009C115.039 179.784 114.676 180.507 114.168 181.128C113.661 181.749 113.021 182.252 112.294 182.601C111.567 182.95 110.772 183.138 109.964 183.15C109.155 183.162 108.354 182.998 107.617 182.67L104.102 181.132C104.008 181.084 103.925 181.018 103.858 180.938C103.79 180.858 103.74 180.765 103.71 180.665C103.68 180.565 103.671 180.46 103.684 180.356C103.696 180.253 103.73 180.153 103.783 180.063C103.849 179.959 103.941 179.873 104.05 179.814C104.159 179.754 104.282 179.724 104.406 179.724H109.168C109.653 179.726 110.124 179.567 110.505 179.272C110.887 178.978 111.157 178.565 111.273 178.101L92.435 160.177Z" fill="#C67761"/>
<path d="M99.1533 150.191C99.7834 150.571 100.349 151.046 100.829 151.599C101.409 152.066 101.869 152.662 102.17 153.338C101.565 152.925 101.018 152.436 100.541 151.884C99.9678 151.417 99.496 150.842 99.1533 150.191Z" fill="#9B4E3D"/>
<path d="M103.713 307.499C103.713 307.499 123.361 245.881 123.782 243.881C124.156 242.073 116.65 197.725 115.7 186.255L142.261 187.232V187.447L153.554 188.063L143.422 314.084H131.217L132.433 272.274C124.896 292.275 114.094 312.592 114.094 312.592L103.713 307.499Z" fill="#C67761"/>
<path d="M131.934 287.237C131.934 286.852 132.082 273.228 132.082 273.228C132.082 273.228 137.475 258.074 137.584 258.458C137.693 258.843 131.934 287.237 131.934 287.237Z" fill="#9B4E3D"/>
<path d="M122.199 91.2891C120.789 89.3659 117.593 89.4967 115.793 91.0737C113.993 92.6507 113.369 95.1739 113.299 97.5509C113.237 99.7587 113.392 102.39 111.592 103.705C110.804 104.14 109.986 104.521 109.145 104.844C108.456 105.229 107.884 105.789 107.487 106.465C107.09 107.141 106.882 107.909 106.885 108.69C106.885 109.859 107.368 111.213 106.581 112.105C106.129 112.494 105.619 112.81 105.069 113.044C104.384 113.526 103.844 114.181 103.506 114.941C103.167 115.7 103.042 116.536 103.144 117.36C103.214 118.666 103.593 119.939 104.25 121.075C104.25 121.075 116.861 120.952 122.597 121.075C122.597 121.075 122.496 101.12 122.199 91.2891Z" fill="#263238"/>
<path d="M142.651 116.929C142.612 115.529 143.032 109.959 143.032 109.959C143.032 109.959 148.293 109.451 148.667 104.182C149.042 98.9124 148.847 86.7503 148.847 86.7503L139.338 81.9116L128.77 89.8735L129.83 116.983L142.651 116.929Z" fill="#C67761"/>
<path d="M147.709 95.6046C147.71 95.6917 147.693 95.7782 147.66 95.859C147.626 95.9397 147.577 96.013 147.515 96.0747C147.452 96.1363 147.378 96.185 147.296 96.2179C147.214 96.2508 147.127 96.2672 147.038 96.2661C146.87 96.2484 146.714 96.1698 146.601 96.0455C146.488 95.9213 146.426 95.7601 146.426 95.593C146.426 95.426 146.488 95.2648 146.601 95.1405C146.714 95.0163 146.87 94.9377 147.038 94.9199C147.128 94.9199 147.218 94.9377 147.3 94.9724C147.383 95.0071 147.458 95.0579 147.521 95.1218C147.583 95.1857 147.632 95.2614 147.664 95.3443C147.697 95.4272 147.712 95.5158 147.709 95.6046Z" fill="#263238"/>
<path d="M148.363 94.8738C148.278 94.9584 147.786 94.5276 147.069 94.4815C146.352 94.4353 145.815 94.7815 145.737 94.6815C145.659 94.5815 145.791 94.4815 146.033 94.3199C146.348 94.1134 146.723 94.016 147.101 94.043C147.479 94.0693 147.838 94.218 148.122 94.4661C148.34 94.6661 148.402 94.8353 148.363 94.8738Z" fill="#263238"/>
<path d="M139.993 95.5197C139.993 95.6972 139.922 95.8675 139.794 95.993C139.667 96.1185 139.495 96.189 139.315 96.189C139.147 96.1712 138.991 96.0926 138.878 95.9684C138.765 95.8441 138.702 95.6829 138.702 95.5159C138.702 95.3488 138.765 95.1877 138.878 95.0634C138.991 94.9391 139.147 94.8606 139.315 94.8428C139.405 94.8428 139.494 94.8603 139.576 94.8944C139.659 94.9286 139.734 94.9785 139.797 95.0415C139.86 95.1045 139.91 95.1792 139.944 95.2612C139.977 95.3433 139.994 95.4312 139.993 95.5197Z" fill="#263238"/>
<path d="M140.414 94.7894C140.328 94.8741 139.837 94.451 139.12 94.4048C138.403 94.3586 137.857 94.6971 137.787 94.6048C137.717 94.5125 137.842 94.3971 138.075 94.2356C138.393 94.0284 138.772 93.9335 139.151 93.9663C139.529 93.9926 139.888 94.1413 140.172 94.3894C140.382 94.5817 140.46 94.751 140.414 94.7894Z" fill="#263238"/>
<path d="M142.931 100.959C143.314 100.855 143.711 100.806 144.108 100.813C144.295 100.813 144.466 100.813 144.505 100.644C144.529 100.446 144.494 100.246 144.404 100.067C144.256 99.5824 144.1 99.0824 143.929 98.5285C143.484 97.2423 143.135 95.926 142.884 94.5898C143.427 95.8374 143.875 97.1231 144.225 98.4362C144.381 98.967 144.537 99.4747 144.677 99.9747C144.786 100.216 144.808 100.488 144.739 100.744C144.713 100.809 144.671 100.867 144.616 100.913C144.562 100.959 144.497 100.99 144.427 101.006C144.324 101.02 144.219 101.02 144.116 101.006C143.72 101.04 143.322 101.024 142.931 100.959Z" fill="#263238"/>
<path d="M143.032 109.959C140.549 109.829 138.16 108.984 136.158 107.528C136.158 107.528 137.717 111.421 142.908 111.252L143.032 109.959Z" fill="#9B4E3D"/>
<path d="M121.241 94.8356C121.295 94.4586 121.186 95.2433 121.241 94.6586C121.315 93.9427 121.43 93.2313 121.584 92.5278C124.537 81.558 134.1 79.6041 135.994 79.6271C138.013 79.6271 143.788 79.481 147.03 83.4735C148.258 84.8966 149.076 86.6188 149.399 88.4603C149.723 90.3018 149.54 92.1952 148.87 93.9432L140.46 92.4431C141.084 90.3738 140.226 87.7814 139.735 86.5736L139.689 86.5275C138.122 94.4048 129.494 95.1356 129.494 95.1356L129.385 107.721C123.15 106.828 121.093 99.405 121.241 94.8356Z" fill="#263238"/>
<path d="M126.985 95.9052C127.246 95.8937 127.507 95.9117 127.764 95.9591C128.444 96.0193 129.127 96.0193 129.806 95.9591C130.808 95.8838 131.794 95.6715 132.737 95.3283C135.065 94.4993 137.006 92.8574 138.192 90.7127C138.686 89.8466 139.056 88.9172 139.291 87.951C139.469 87.0462 139.591 86.1317 139.658 85.2124C139.73 85.4623 139.761 85.722 139.751 85.9817C139.77 86.6708 139.71 87.3598 139.572 88.0356C139.365 89.0402 139.011 90.0095 138.52 90.9127C137.665 92.476 136.412 93.7917 134.883 94.7295C133.355 95.6673 131.605 96.1946 129.806 96.2591C129.112 96.2914 128.416 96.2424 127.733 96.1129C127.474 96.0844 127.221 96.0142 126.985 95.9052Z" fill="#263238"/>
<path d="M129.588 100.967C129.643 100.198 130.009 98.2821 129.744 97.5359C129.479 96.7897 128.637 96.6205 127.71 96.6282C127.186 96.6471 126.689 96.8605 126.317 97.2256C125.946 97.5906 125.728 98.0806 125.707 98.5975C125.685 99.0447 125.777 99.4901 125.975 99.8931C126.172 100.296 126.468 100.644 126.837 100.905C127.241 101.127 127.69 101.256 128.152 101.283C128.613 101.31 129.075 101.233 129.502 101.059" fill="#C67761"/>
<path d="M128.59 99.9284C128.59 99.8746 128.325 99.9899 127.99 99.8746C127.781 99.794 127.602 99.6517 127.478 99.4673C127.354 99.2828 127.291 99.0651 127.296 98.8437C127.281 98.7321 127.29 98.6185 127.324 98.5108C127.357 98.4031 127.415 98.3041 127.491 98.2206C127.642 98.1117 127.827 98.0599 128.013 98.0745C128.38 98.1206 128.629 98.2206 128.653 98.1591C128.676 98.0975 128.497 97.936 128.068 97.8052C127.936 97.7701 127.798 97.7635 127.664 97.7861C127.529 97.8087 127.401 97.8598 127.289 97.936C127.159 98.0508 127.059 98.1944 126.997 98.3549C126.934 98.5154 126.912 98.6882 126.93 98.8591C126.921 99.179 127.02 99.4929 127.211 99.7515C127.384 99.963 127.632 100.103 127.904 100.144C128.403 100.205 128.629 99.9592 128.59 99.9284Z" fill="#9B4E3D"/>
<path d="M126.361 100.836C126.289 101.115 126.255 101.402 126.26 101.69C126.288 101.987 126.431 102.262 126.658 102.459C126.787 102.578 126.941 102.668 127.11 102.721C127.279 102.774 127.457 102.789 127.633 102.765C127.808 102.742 127.976 102.68 128.124 102.584C128.272 102.489 128.397 102.362 128.489 102.213C128.654 101.969 128.718 101.671 128.668 101.382C128.59 100.867 128.302 100.613 128.349 100.613C128.396 100.613 128.762 100.744 128.949 101.382C129.001 101.562 129.015 101.75 128.991 101.935C128.967 102.12 128.905 102.298 128.809 102.459C128.695 102.663 128.534 102.839 128.339 102.971C128.145 103.103 127.921 103.188 127.687 103.219C127.453 103.251 127.214 103.228 126.991 103.152C126.768 103.076 126.565 102.949 126.4 102.782C126.266 102.652 126.159 102.496 126.087 102.324C126.015 102.153 125.978 101.968 125.98 101.782C125.987 101.067 126.338 100.797 126.361 100.836Z" fill="#455A64"/>
<path d="M122.534 97.9969C122.219 97.7513 121.968 97.4348 121.802 97.0738C121.34 96.239 121.064 95.3167 120.991 94.3684C120.919 93.42 121.051 92.4673 121.381 91.5735C121.49 91.1917 121.693 90.8427 121.973 90.5581C121.554 91.7731 121.356 93.052 121.389 94.3352C121.552 95.6122 121.94 96.8513 122.534 97.9969Z" fill="#455A64"/>
<path d="M101.296 118.875C101.215 118.766 101.145 118.65 101.086 118.529C100.929 118.176 100.824 117.803 100.774 117.421C100.705 116.809 100.761 116.189 100.938 115.598C101.178 114.818 101.641 114.124 102.271 113.598C102.972 112.982 103.985 112.713 104.609 111.975C104.921 111.581 105.076 111.089 105.045 110.59C105.002 110.029 104.924 109.472 104.811 108.921C104.69 108.306 104.709 107.673 104.866 107.067C105.067 106.44 105.417 105.871 105.887 105.405C106.876 104.501 107.998 103.748 109.215 103.174C110.388 102.629 111.363 101.74 112.005 100.628C112.389 99.4918 112.532 98.29 112.426 97.097C112.406 96.0379 112.602 94.9857 113.004 94.0035C113.406 93.0213 114.004 92.1294 114.764 91.3813C115.825 90.4087 117.214 89.8603 118.661 89.8428C119.051 89.8464 119.438 89.8981 119.815 89.9966C119.949 90.0242 120.078 90.0736 120.196 90.1428C119.683 90.0434 119.161 89.997 118.638 90.0043C117.242 90.0733 115.918 90.639 114.912 91.5967C114.2 92.3279 113.641 93.191 113.268 94.1363C112.894 95.0816 112.714 96.0904 112.738 97.1047C112.854 98.352 112.705 99.6096 112.301 100.797C111.631 101.988 110.601 102.943 109.355 103.528C108.173 104.085 107.081 104.811 106.113 105.682C105.681 106.083 105.362 106.588 105.188 107.148C105.015 107.708 104.992 108.303 105.123 108.874C105.235 109.441 105.308 110.014 105.341 110.59C105.367 111.173 105.176 111.745 104.804 112.198C104.024 113.028 103.003 113.259 102.356 113.821C101.753 114.316 101.305 114.969 101.063 115.706C100.875 116.265 100.799 116.856 100.837 117.444C100.933 117.937 101.088 118.417 101.296 118.875Z" fill="#263238"/>
<path d="M140.788 101.39C140.968 101.315 141.162 101.277 141.357 101.277C141.552 101.277 141.746 101.315 141.926 101.39C142.104 101.469 142.26 101.591 142.377 101.746C142.494 101.901 142.57 102.083 142.596 102.274C142.617 102.467 142.578 102.661 142.483 102.83C142.388 103 142.243 103.136 142.066 103.22C141.889 103.286 141.698 103.309 141.51 103.287C141.321 103.266 141.141 103.201 140.983 103.097C140.827 103.02 140.69 102.911 140.578 102.779C140.467 102.647 140.385 102.493 140.336 102.328C140.3 102.154 140.326 101.973 140.41 101.816C140.494 101.659 140.63 101.536 140.796 101.466" fill="#9B4E3D"/>
<path d="M140.273 100.405C140.39 100.405 140.624 101.359 141.551 102.036C142.152 102.399 142.811 102.659 143.5 102.805C143.5 102.859 143.258 102.944 142.837 102.928C142.274 102.903 141.732 102.713 141.279 102.382C140.834 102.055 140.498 101.605 140.312 101.09C140.211 100.675 140.226 100.413 140.273 100.405Z" fill="#263238"/>
<path d="M117.858 118.144C114.826 118.913 113.127 119.837 108.607 124.675L96.4954 138.099L113.135 150.046L119.947 140.914L121.397 160.915C121.397 160.915 117.624 165.485 114.281 178.201C111.576 188.486 111.327 198.971 110.555 206.948L108.506 257.174L155.892 258.451C155.892 258.451 154.115 243.581 154.965 211.895C155.448 193.879 152.494 175.862 150.896 170.877L148.457 157.838C148.445 155.442 149.168 153.099 150.53 151.115C154.372 145.776 151.637 139.468 151.637 139.468L164.286 144.084L172.633 125.498L155.37 119.075C149.135 116.529 141.707 116.898 141.707 116.898L128.559 116.744C128.559 116.744 122.386 116.275 117.866 118.136" fill="#CD5954"/>
<path d="M143.671 314.684V313.546L131.155 313.007V317.684L131.934 317.738C135.371 317.931 149.415 318.508 151.722 317.823C154.248 317.069 143.671 314.684 143.671 314.684Z" fill="#CD5954"/>
<g opacity="0.5">
<path d="M135.636 317.6C135.465 316.565 134.909 315.629 134.077 314.977C133.258 314.324 132.22 314 131.17 314.069V317.508L135.636 317.6Z" fill="white"/>
</g>
<g opacity="0.5">
<path d="M148.839 316.031C148.839 316.031 152.541 317.092 152.081 317.7C151.621 318.308 137.39 318.246 131.124 317.7V317.423L147.709 317.623C147.709 317.623 148.114 316.054 148.839 316.031Z" fill="white"/>
</g>
<path d="M130.944 317.4H131.162L131.778 317.438L134.038 317.546C135.948 317.616 138.598 317.685 141.513 317.7C144.427 317.716 147.077 317.7 148.987 317.608L151.255 317.523H151.871H152.081H151.255H148.987C147.077 317.562 144.435 317.585 141.513 317.577C138.59 317.569 135.956 317.508 134.046 317.461L131.778 317.407H131.162L130.944 317.4Z" fill="#263238"/>
<path d="M147.724 317.8C147.827 317.429 147.971 317.07 148.153 316.73C148.382 316.422 148.643 316.139 148.932 315.884C148.546 316.024 148.225 316.297 148.028 316.653C147.785 316.985 147.677 317.393 147.724 317.8Z" fill="#263238"/>
<path d="M144.053 315.915C144.092 315.915 144.272 315.723 144.451 315.446C144.63 315.169 144.755 314.915 144.716 314.892C144.677 314.869 144.506 315.084 144.326 315.361C144.193 315.523 144.1 315.712 144.053 315.915Z" fill="#263238"/>
<path d="M143.048 315.415C143.048 315.415 143.274 315.315 143.492 315.131C143.711 314.946 143.859 314.761 143.827 314.731C143.796 314.7 143.609 314.831 143.391 315.015C143.173 315.2 143.025 315.384 143.048 315.415Z" fill="#263238"/>
<path d="M142.417 314.254C142.624 314.327 142.844 314.356 143.063 314.339C143.43 314.339 143.718 314.339 143.718 314.269C143.511 314.196 143.29 314.167 143.071 314.184C142.85 314.161 142.627 314.185 142.417 314.254Z" fill="#263238"/>
<path d="M142.198 313.43C142.412 313.575 142.665 313.65 142.923 313.646C143.187 313.695 143.46 313.66 143.702 313.546C143.46 313.511 143.215 313.496 142.97 313.5C142.715 313.456 142.457 313.432 142.198 313.43Z" fill="#263238"/>
<path d="M144.482 314.877C144.74 314.92 145.004 314.92 145.262 314.877C145.55 314.845 145.834 314.786 146.111 314.7C146.281 314.65 146.446 314.583 146.602 314.5C146.697 314.443 146.768 314.356 146.805 314.254C146.816 314.195 146.811 314.134 146.789 314.078C146.767 314.022 146.729 313.974 146.68 313.938C146.375 313.789 146.026 313.75 145.695 313.828C145.364 313.905 145.07 314.093 144.864 314.361C144.742 314.517 144.652 314.694 144.599 314.884C144.599 315.015 144.599 315.092 144.599 315.1C144.677 314.853 144.801 314.624 144.965 314.423C145.145 314.214 145.384 314.064 145.651 313.992C145.806 313.939 145.97 313.917 146.133 313.928C146.296 313.938 146.456 313.981 146.602 314.054C146.727 314.146 146.68 314.3 146.54 314.377C146.396 314.456 146.245 314.521 146.088 314.569C145.818 314.66 145.542 314.729 145.262 314.777C144.786 314.854 144.482 314.854 144.482 314.877Z" fill="#263238"/>
<path d="M144.692 314.915C144.785 314.749 144.818 314.556 144.786 314.369C144.76 314.162 144.685 313.965 144.568 313.792C144.503 313.672 144.408 313.572 144.292 313.5C144.176 313.429 144.042 313.388 143.905 313.384C143.865 313.391 143.826 313.407 143.792 313.429C143.757 313.451 143.727 313.48 143.704 313.513C143.681 313.547 143.665 313.585 143.657 313.625C143.648 313.665 143.648 313.706 143.656 313.746C143.675 313.871 143.72 313.992 143.788 314.099C143.892 314.276 144.02 314.436 144.17 314.576C144.291 314.72 144.447 314.831 144.622 314.899C144.622 314.899 144.466 314.761 144.248 314.507C144.118 314.362 144.005 314.202 143.913 314.03C143.804 313.869 143.726 313.569 143.913 313.53C144.1 313.492 144.318 313.707 144.443 313.869C144.553 314.022 144.628 314.199 144.661 314.384C144.685 314.56 144.696 314.737 144.692 314.915Z" fill="#263238"/>
<path d="M131.217 314.038C131.217 314.038 131.568 314.038 132.136 314.077C132.869 314.161 133.563 314.446 134.139 314.9C134.711 315.359 135.143 315.966 135.386 316.654C135.574 317.177 135.589 317.531 135.62 317.531C135.635 317.449 135.635 317.366 135.62 317.284C135.6 317.057 135.555 316.833 135.488 316.615C135.265 315.893 134.827 315.254 134.231 314.782C133.634 314.309 132.907 314.026 132.144 313.969C131.916 313.944 131.686 313.944 131.458 313.969C131.375 313.979 131.293 314.002 131.217 314.038Z" fill="#263238"/>
<path d="M137.21 316.423C137.806 316.555 138.416 316.612 139.026 316.593C139.639 316.62 140.252 316.568 140.85 316.438C140.85 316.4 140.032 316.438 139.026 316.438C138.021 316.438 137.21 316.377 137.21 316.423Z" fill="#263238"/>
<path d="M134.771 316.392C134.771 316.392 134.833 316.569 134.919 316.754C135.005 316.938 135.044 317.1 135.09 317.092C135.137 317.084 135.153 316.9 135.051 316.692C134.95 316.484 134.794 316.369 134.771 316.392Z" fill="#263238"/>
<path d="M133.851 315.261C133.851 315.261 133.906 315.415 134.03 315.546C134.155 315.677 134.288 315.761 134.319 315.73C134.35 315.7 134.264 315.577 134.139 315.446C134.015 315.315 133.882 315.23 133.851 315.261Z" fill="#263238"/>
<path d="M132.542 314.738C132.542 314.785 132.713 314.785 132.892 314.846C133.072 314.908 133.212 315.008 133.243 314.977C133.274 314.947 133.173 314.785 132.947 314.707C132.721 314.63 132.526 314.7 132.542 314.738Z" fill="#263238"/>
<path d="M131.599 314.492C131.599 314.531 131.661 314.593 131.763 314.639C131.864 314.685 131.957 314.677 131.973 314.639C131.989 314.6 131.918 314.539 131.817 314.5C131.716 314.462 131.614 314.454 131.599 314.492Z" fill="#263238"/>
<path d="M114.343 313.607L114.811 312.577L103.619 307.022L101.647 311.269L102.333 311.63C105.38 313.169 117.921 319.408 120.345 319.715C122.995 320.038 114.343 313.607 114.343 313.607Z" fill="#CD5954"/>
<g opacity="0.5">
<path d="M105.801 313.007C106.076 311.974 105.951 310.877 105.45 309.93C104.971 309.006 104.155 308.294 103.167 307.938L101.733 311.061L105.801 313.007Z" fill="white"/>
</g>
<g opacity="0.5">
<path d="M118.497 316.908C118.497 316.908 121.436 319.377 120.758 319.739C120.08 320.1 107.134 314.308 101.647 311.277L101.78 311.038L116.83 317.923C116.83 317.923 117.858 316.639 118.497 316.908Z" fill="white"/>
</g>
<path d="M101.608 310.93L101.788 311.038L102.333 311.323L104.36 312.33C106.066 313.169 108.451 314.3 111.109 315.492C113.767 316.685 116.198 317.715 117.968 318.431L120.072 319.269L120.641 319.492C120.708 319.523 120.779 319.543 120.851 319.554L120.657 319.462L120.088 319.215L118.007 318.338C116.253 317.569 113.829 316.554 111.171 315.361C108.514 314.169 106.129 313.054 104.406 312.238L102.364 311.3L101.803 311.038L101.608 310.93Z" fill="#263238"/>
<path d="M116.744 318.077C116.992 317.79 117.272 317.532 117.578 317.307C117.912 317.113 118.268 316.956 118.638 316.838C118.226 316.817 117.82 316.939 117.492 317.184C117.14 317.381 116.874 317.699 116.744 318.077Z" fill="#263238"/>
<path d="M114.172 314.9C114.172 314.938 114.437 314.815 114.725 314.631C115.014 314.446 115.216 314.269 115.193 314.238C115.17 314.208 114.928 314.323 114.64 314.508C114.351 314.692 114.149 314.869 114.172 314.9Z" fill="#263238"/>
<path d="M113.471 314.007C113.471 314.053 113.72 314.007 113.993 313.923C114.265 313.838 114.476 313.738 114.468 313.7C114.46 313.661 114.219 313.7 113.946 313.784C113.673 313.869 113.455 313.969 113.471 314.007Z" fill="#263238"/>
<path d="M113.377 312.692C113.377 312.73 113.611 312.884 113.93 313.03C114.119 313.146 114.333 313.217 114.554 313.238C114.554 313.238 114.32 313.046 114 312.9C113.812 312.784 113.598 312.713 113.377 312.692Z" fill="#263238"/>
<path d="M113.517 311.861C113.658 312.074 113.858 312.242 114.094 312.346C114.305 312.488 114.555 312.563 114.811 312.561C114.811 312.515 114.515 312.407 114.164 312.215C113.961 312.075 113.744 311.957 113.517 311.861Z" fill="#263238"/>
<path d="M115.006 314.1C115.227 314.247 115.472 314.353 115.731 314.415C116.01 314.504 116.297 314.566 116.588 314.6C116.764 314.616 116.942 314.616 117.118 314.6C117.227 314.589 117.328 314.537 117.399 314.454C117.43 314.404 117.447 314.347 117.447 314.288C117.447 314.23 117.43 314.172 117.399 314.123C117.183 313.862 116.882 313.683 116.548 313.619C116.213 313.554 115.866 313.607 115.567 313.769C115.389 313.858 115.232 313.984 115.107 314.138C115.057 314.19 115.019 314.254 114.998 314.323C115.175 314.136 115.384 313.98 115.614 313.861C115.857 313.75 116.127 313.708 116.393 313.738C116.557 313.753 116.715 313.8 116.86 313.877C117.005 313.953 117.132 314.058 117.235 314.184C117.313 314.323 117.235 314.438 117.04 314.454C116.879 314.469 116.718 314.469 116.557 314.454C116.273 314.427 115.991 314.378 115.715 314.307C115.294 314.2 115.014 314.077 115.006 314.1Z" fill="#263238"/>
<path d="M115.177 314.215C115.177 314.215 115.372 314.092 115.489 313.754C115.542 313.552 115.542 313.34 115.489 313.138C115.48 313.003 115.434 312.873 115.358 312.761C115.281 312.649 115.176 312.559 115.053 312.5C114.873 312.446 114.46 312.8 114.429 312.938C114.398 313.077 114.639 313 114.655 313.107C114.675 313.31 114.722 313.509 114.795 313.7C114.848 313.881 114.947 314.045 115.084 314.177C115.084 314.177 114.99 313.984 114.897 313.669C114.844 313.483 114.808 313.292 114.788 313.1C114.788 312.9 114.788 312.6 115.014 312.646C115.24 312.692 115.31 312.977 115.356 313.169C115.396 313.351 115.396 313.54 115.356 313.723C115.313 313.892 115.253 314.057 115.177 314.215Z" fill="#263238"/>
<path d="M103.245 307.969C103.245 307.969 103.58 308.084 104.071 308.369C104.698 308.738 105.21 309.27 105.552 309.907C105.888 310.554 106.031 311.283 105.965 312.007C105.918 312.569 105.786 312.9 105.817 312.907C105.862 312.836 105.896 312.758 105.918 312.676C105.993 312.465 106.046 312.245 106.074 312.023C106.167 311.273 106.034 310.513 105.692 309.838C105.345 309.167 104.802 308.615 104.133 308.253C103.935 308.143 103.726 308.053 103.51 307.984C103.423 307.967 103.333 307.962 103.245 307.969Z" fill="#263238"/>
<path d="M107.726 312.569C108.205 312.931 108.729 313.231 109.285 313.461C109.829 313.734 110.409 313.934 111.008 314.053C111.008 314.015 110.228 313.73 109.347 313.322C108.467 312.915 107.726 312.53 107.726 312.569Z" fill="#263238"/>
<path d="M105.505 311.553C105.466 311.553 105.505 311.738 105.505 311.938C105.505 312.138 105.505 312.307 105.505 312.323C105.505 312.338 105.645 312.176 105.645 311.938C105.645 311.699 105.544 311.538 105.505 311.553Z" fill="#263238"/>
<path d="M105.147 310.154C105.108 310.154 105.147 310.315 105.185 310.484C105.224 310.654 105.334 310.785 105.373 310.769C105.411 310.754 105.373 310.608 105.326 310.431C105.279 310.254 105.185 310.138 105.147 310.154Z" fill="#263238"/>
<path d="M104.165 309.145C104.165 309.184 104.305 309.253 104.445 309.384C104.585 309.515 104.663 309.661 104.702 309.646C104.741 309.63 104.702 309.438 104.546 309.276C104.391 309.115 104.165 309.107 104.165 309.145Z" fill="#263238"/>
<path d="M103.408 308.538C103.408 308.538 103.408 308.654 103.494 308.739C103.58 308.824 103.658 308.854 103.689 308.824C103.72 308.793 103.689 308.708 103.603 308.631C103.518 308.554 103.44 308.515 103.408 308.538Z" fill="#263238"/>
<path d="M179.726 130.614C179.05 130.175 178.454 129.626 177.964 128.991C177.377 128.443 176.885 127.804 176.507 127.099C177.179 127.542 177.774 128.09 178.268 128.722C178.858 129.268 179.35 129.908 179.726 130.614Z" fill="#9B4E3D"/>
<path d="M160.584 121.083C160.422 121.112 160.257 121.125 160.093 121.121L158.69 121.16L153.538 121.221L136.517 121.283L119.503 121.221L114.343 121.16L112.94 121.121C112.776 121.125 112.611 121.112 112.449 121.083C112.612 121.062 112.777 121.062 112.94 121.083L114.343 121.044L119.503 120.975L136.517 120.921L153.538 120.975L158.69 121.044L160.093 121.083C160.256 121.062 160.421 121.062 160.584 121.083Z" fill="#263238"/>
<path d="M171.215 128.491C170.992 128.507 170.768 128.507 170.545 128.491L168.62 128.529L161.551 128.591L138.232 128.652L114.897 128.591L107.828 128.529L105.911 128.491C105.687 128.507 105.463 128.507 105.24 128.491C105.462 128.456 105.686 128.443 105.911 128.452L107.828 128.414L114.897 128.344L138.232 128.291L161.551 128.344L168.62 128.414L170.545 128.452C170.769 128.444 170.993 128.456 171.215 128.491Z" fill="#263238"/>
<path d="M166.009 137.36C165.779 137.39 165.547 137.403 165.315 137.399L163.32 137.437L155.986 137.499L131.786 137.56L107.578 137.499L100.244 137.445L98.2491 137.407C98.0172 137.41 97.7854 137.397 97.5554 137.368C97.7861 137.347 98.0184 137.347 98.2491 137.368L100.244 137.33L107.578 137.26L131.786 137.207L155.986 137.26L163.32 137.33L165.315 137.368C165.545 137.344 165.778 137.341 166.009 137.36Z" fill="#263238"/>
<path d="M151.98 146.461C151.567 146.524 151.15 146.55 150.732 146.538L147.334 146.6C144.466 146.6 140.507 146.661 136.135 146.661C131.762 146.661 127.795 146.661 124.935 146.6L121.537 146.538C121.12 146.55 120.702 146.524 120.29 146.461C120.702 146.399 121.12 146.373 121.537 146.384L124.935 146.323C127.795 146.323 131.762 146.261 136.135 146.261C140.507 146.261 144.466 146.261 147.334 146.323L150.732 146.384C151.15 146.373 151.567 146.399 151.98 146.461Z" fill="#263238"/>
<path d="M148.69 155.369C148.333 155.432 147.97 155.458 147.607 155.446L144.645 155.508C142.151 155.546 138.699 155.569 134.888 155.569C131.076 155.569 127.616 155.569 125.122 155.508L122.16 155.446C121.797 155.458 121.434 155.432 121.077 155.369C121.434 155.307 121.797 155.281 122.16 155.293L125.122 155.231C127.616 155.193 131.069 155.169 134.888 155.169C138.707 155.169 142.151 155.169 144.645 155.231L147.607 155.293C147.97 155.281 148.333 155.307 148.69 155.369Z" fill="#263238"/>
<path d="M150.429 151.161C150.043 151.224 149.651 151.25 149.26 151.238L146.088 151.308C143.407 151.308 139.704 151.361 135.613 151.361C131.521 151.361 127.819 151.361 125.13 151.308L121.958 151.238C121.569 151.25 121.18 151.224 120.797 151.161C121.181 151.104 121.569 151.078 121.958 151.084L125.13 151.023C127.811 150.984 131.521 150.961 135.613 150.961C139.704 150.961 143.407 150.961 146.088 151.023L149.26 151.084C149.651 151.078 150.042 151.104 150.429 151.161Z" fill="#263238"/>
<path d="M152.338 142.06C151.917 142.118 151.493 142.144 151.068 142.137L147.607 142.199C144.677 142.237 140.64 142.26 136.181 142.26C131.723 142.26 127.671 142.26 124.748 142.199L121.287 142.137C120.863 142.144 120.438 142.118 120.017 142.06C120.437 141.998 120.863 141.972 121.287 141.983L124.748 141.914C127.671 141.914 131.716 141.86 136.181 141.86C140.647 141.86 144.677 141.86 147.607 141.914L151.068 141.983C151.493 141.972 151.918 141.998 152.338 142.06Z" fill="#263238"/>
<path d="M119.105 142.015C118.272 142.136 117.429 142.184 116.588 142.161C115.029 142.2 112.886 142.215 110.508 142.215C108.131 142.215 105.988 142.215 104.437 142.161C103.595 142.184 102.753 142.136 101.92 142.015C102.754 141.905 103.596 141.858 104.437 141.876C105.996 141.876 108.139 141.815 110.508 141.815C112.878 141.815 115.037 141.815 116.588 141.876C117.429 141.858 118.271 141.905 119.105 142.015Z" fill="#263238"/>
<path d="M165.471 141.537C162.643 141.804 159.796 141.804 156.968 141.537C159.796 141.271 162.643 141.271 165.471 141.537Z" fill="#263238"/>
<path d="M168.643 132.76C168.415 132.785 168.186 132.797 167.957 132.799H165.993L158.776 132.86L134.958 132.922L111.14 132.86L103.923 132.799H101.959C101.732 132.797 101.506 132.784 101.281 132.76C101.505 132.725 101.732 132.71 101.959 132.714H103.923L111.14 132.652L134.958 132.599L158.776 132.652L165.993 132.714H167.957C168.187 132.709 168.416 132.725 168.643 132.76Z" fill="#263238"/>
<path d="M169.944 124.483C169.737 124.499 169.528 124.499 169.321 124.483L167.536 124.521L160.966 124.583L139.299 124.644L117.625 124.583L111.062 124.521L109.27 124.483C109.065 124.499 108.859 124.499 108.654 124.483C108.857 124.448 109.063 124.435 109.27 124.444H111.062L117.625 124.375L139.299 124.321L160.966 124.375L167.536 124.444H169.321C169.53 124.436 169.739 124.449 169.944 124.483Z" fill="#263238"/>
<path d="M49.3118 69.403C49.3118 69.403 49.2728 69.2414 49.2261 68.9107C49.1793 68.5799 49.1169 68.0798 49.0234 67.4414C49.0234 67.126 48.9143 66.7644 48.8987 66.3644C48.8831 65.9644 48.8987 65.5259 48.8987 65.0489C48.8987 64.572 48.852 64.0566 48.8987 63.5104C48.9455 62.9642 48.9844 62.3873 49.0312 61.7719C49.6895 54.7274 53.0321 48.1922 58.3838 43.4864L59.662 42.3786C60.1218 42.0325 60.5972 41.7094 61.0727 41.3709C65.2749 38.4931 70.1631 36.7434 75.2574 36.2937C75.9355 36.2168 76.6291 36.2476 77.315 36.2168H78.3594C78.7101 36.2168 79.0608 36.2706 79.4115 36.2937C82.3053 36.4559 85.1544 37.0713 87.8523 38.1169C93.7074 40.3257 98.6716 44.3611 101.99 49.6097C105.515 55.278 106.955 61.9716 106.066 68.5645C106.004 68.9953 105.926 69.4261 105.848 69.8569V69.703L115.022 82.2882L115.294 82.6729L114.827 82.5959L101.18 80.5189L101.367 80.4343C97.4121 86.2733 91.3923 90.4456 84.4853 92.1348C83.4402 92.3982 82.3777 92.5884 81.3055 92.7041L79.7467 92.8887C79.2245 92.9503 78.7023 92.8887 78.1879 92.9426C74.2963 93.0364 70.4264 92.3427 66.8167 90.904C63.732 89.6653 60.8851 87.9142 58.3994 85.7268L56.7939 84.1883L55.4221 82.6498C54.9924 82.164 54.5966 81.65 54.2375 81.1112C53.879 80.5881 53.4581 80.1189 53.2009 79.6112C52.1478 77.9094 51.2755 76.1049 50.5978 74.2263L49.9197 72.18C49.7872 71.5723 49.6781 71.0646 49.5846 70.6415L49.3897 69.703C49.3507 69.4953 49.3352 69.3799 49.3352 69.3799L49.4209 69.6953L49.6547 70.6261C49.7482 71.0415 49.8729 71.5492 50.0132 72.1647L50.7147 74.1878C51.4095 76.0415 52.2948 77.8201 53.3568 79.4958C53.6452 80.0035 54.0426 80.4651 54.3934 80.9805C54.7593 81.5164 55.1575 82.0302 55.5858 82.519L56.9575 84.0575L58.5163 85.5345C60.9931 87.6891 63.8238 89.4113 66.8869 90.6271C70.4628 92.0355 74.2925 92.7082 78.1411 92.6041C78.6555 92.6041 79.1699 92.6041 79.6999 92.5502L81.2587 92.3579C82.311 92.2428 83.3531 92.0499 84.3762 91.781C86.5393 91.2566 88.6322 90.4819 90.6113 89.4732C94.8158 87.2977 98.4071 84.1257 101.063 80.242L101.133 80.142H101.258L114.803 82.2113L114.608 82.519L105.388 69.9107L105.334 69.8415V69.7568C105.412 69.3363 105.482 68.9132 105.544 68.4876C106.431 61.987 105.016 55.3837 101.538 49.7944C98.2663 44.6139 93.3747 40.6256 87.6029 38.4323C84.9395 37.4001 82.1276 36.7899 79.2713 36.6245C78.9205 36.6245 78.5776 36.5553 78.2347 36.5476H77.2059C76.52 36.5476 75.8342 36.5476 75.1639 36.6168C73.8526 36.7326 72.5506 36.9357 71.267 37.2245C68.8044 37.7533 66.4244 38.6045 64.1902 39.7554C63.1409 40.3039 62.1283 40.918 61.1584 41.594C60.6908 41.9325 60.2154 42.2478 59.7633 42.594L58.4929 43.6864C55.4983 46.3139 53.1068 49.5425 51.4785 53.1561C50.2421 55.8878 49.4529 58.7959 49.1403 61.7719C49.0858 62.3796 49.039 62.9565 48.9922 63.5027C48.9455 64.0489 48.9922 64.5566 48.9922 65.0412C48.9922 65.5259 48.9922 65.949 48.9922 66.349C48.9922 66.749 49.0702 67.1183 49.1013 67.426C49.1715 68.0645 49.2261 68.5491 49.265 68.8953C49.304 69.2414 49.3118 69.403 49.3118 69.403Z" fill="#263238"/>
<path d="M68.1725 53.7871L64.751 79.3729H90.0887L86.4022 53.7871H68.1725Z" fill="#455A64"/>
<path d="M84.3449 57.5029C84.3501 57.7667 84.2997 58.0287 84.1968 58.2722C83.9821 58.9244 83.6751 59.5434 83.2849 60.1107C82.7047 60.9686 81.9311 61.6822 81.0247 62.1955C79.9019 62.8088 78.637 63.1242 77.3538 63.1109C76.0729 63.1439 74.8044 62.8554 73.6673 62.2724C72.7475 61.7753 71.9761 61.0485 71.4305 60.1646C71.0582 59.5822 70.7795 58.9464 70.6043 58.2799C70.5136 58.034 70.479 57.7713 70.503 57.5106C70.7787 58.3805 71.1691 59.2107 71.6643 59.98C72.2167 60.7947 72.9634 61.463 73.8388 61.9262C74.9271 62.4603 76.1309 62.7243 77.346 62.6955C78.5655 62.7123 79.7695 62.4238 80.8454 61.857C81.7152 61.3841 82.4683 60.7274 83.0511 59.9338C83.5716 59.1729 84.0055 58.3577 84.3449 57.5029Z" fill="white"/>
</svg>
